<svg width="1024" height="1024" viewBox="0 0 1024 1024" fill="none" xmlns="http://www.w3.org/2000/svg">
<path d="M564.2 138.8C564.3 128.5 553.7 121.4 543.6 124.9L212.7 243.6C206.7 245.7 202.7 251.3 202.7 257.5V830.1H564.2V138.8ZM359.8 716.3C359.8 728.6 349.6 738.6 336.8 738.6H296.6C283.9 738.6 273.6 728.7 273.6 716.3V701.5C273.6 689.2 283.8 679.2 296.6 679.2H336.8C349.5 679.2 359.8 689.1 359.8 701.5V716.3ZM359.8 629.5C359.8 641.8 349.6 651.8 336.8 651.8H296.6C283.9 651.8 273.6 641.9 273.6 629.5V614.7C273.6 602.4 283.8 592.4 296.6 592.4H336.8C349.5 592.4 359.8 602.3 359.8 614.7V629.5ZM359.8 538.2C359.8 550.5 349.6 560.5 336.8 560.5H296.6C283.9 560.5 273.6 550.6 273.6 538.2V523.4C273.6 511.1 283.8 501.1 296.6 501.1H336.8C349.5 501.1 359.8 511 359.8 523.4V538.2ZM359.8 448.7C359.8 461 349.6 471 336.8 471H296.6C283.9 471 273.6 461.1 273.6 448.7V433.9C273.6 421.6 283.8 411.6 296.6 411.6H336.8C349.5 411.6 359.8 421.5 359.8 433.9V448.7ZM359.8 359.3C359.8 371.6 349.6 381.6 336.8 381.6H296.6C283.9 381.6 273.6 371.7 273.6 359.3V344.5C273.6 332.2 283.8 322.2 296.6 322.2H336.8C349.5 322.2 359.8 332.1 359.8 344.5V359.3ZM495.6 716.3C495.6 728.6 485.4 738.6 472.6 738.6H432.4C419.7 738.6 409.4 728.7 409.4 716.3V701.5C409.4 689.2 419.6 679.2 432.4 679.2H472.6C485.3 679.2 495.6 689.1 495.6 701.5V716.3ZM495.6 629.5C495.6 641.8 485.4 651.8 472.6 651.8H432.4C419.7 651.8 409.4 641.9 409.4 629.5V614.7C409.4 602.4 419.6 592.4 432.4 592.4H472.6C485.3 592.4 495.6 602.3 495.6 614.7V629.5ZM495.6 538.2C495.6 550.5 485.4 560.5 472.6 560.5H432.4C419.7 560.5 409.4 550.6 409.4 538.2V523.4C409.4 511.1 419.6 501.1 432.4 501.1H472.6C485.3 501.1 495.6 511 495.6 523.4V538.2ZM495.6 448.7C495.6 461 485.4 471 472.6 471H432.4C419.7 471 409.4 461.1 409.4 448.7V433.9C409.4 421.6 419.6 411.6 432.4 411.6H472.6C485.3 411.6 495.6 421.5 495.6 433.9V448.7ZM495.6 359.3C495.6 371.6 485.4 381.6 472.6 381.6H432.4C419.7 381.6 409.4 371.7 409.4 359.3V344.5C409.4 332.2 419.6 322.2 432.4 322.2H472.6C485.3 322.2 495.6 332.1 495.6 344.5V359.3ZM495.6 272C495.6 284.3 485.4 294.3 472.6 294.3H432.4C419.7 294.3 409.4 284.4 409.4 272V257.2C409.4 244.9 419.6 234.9 432.4 234.9H472.6C485.3 234.9 495.6 244.8 495.6 257.2V272ZM838.2 338.3C838.3 332.8 835.2 327.8 830.3 325.2L613.4 211.6C603.2 206.2 590.8 213.5 590.8 224.7V830.2H838.2V338.3ZM754.6 716.3C754.6 728.6 744.4 738.6 731.6 738.6H691.4C678.7 738.6 668.4 728.7 668.4 716.3V701.5C668.4 689.2 678.6 679.2 691.4 679.2H731.6C744.3 679.2 754.6 689.1 754.6 701.5V716.3ZM754.6 629.5C754.6 641.8 744.4 651.8 731.6 651.8H691.4C678.7 651.8 668.4 641.9 668.4 629.5V614.7C668.4 602.4 678.6 592.4 691.4 592.4H731.6C744.3 592.4 754.6 602.3 754.6 614.7V629.5ZM754.6 538.2C754.6 550.5 744.4 560.5 731.6 560.5H691.4C678.7 560.5 668.4 550.6 668.4 538.2V523.4C668.4 511.1 678.6 501.1 691.4 501.1H731.6C744.3 501.1 754.6 511 754.6 523.4V538.2ZM754.6 448.7C754.6 461 744.4 471 731.6 471H691.4C678.7 471 668.4 461.1 668.4 448.7V433.9C668.4 421.6 678.6 411.6 691.4 411.6H731.6C744.3 411.6 754.6 421.5 754.6 433.9V448.7ZM754.6 359.3C754.6 371.6 744.4 381.6 731.6 381.6H691.4C678.7 381.6 668.4 371.7 668.4 359.3V344.5C668.4 332.2 678.6 322.2 691.4 322.2H731.6C744.3 322.2 754.6 332.1 754.6 344.5V359.3Z" fill="#1677FF"/>
<path d="M876 900.8H147.2C138.8 900.8 132 892.8 132 883.1V847.8C132 838.1 138.8 830.1 147.2 830.1H876C884.4 830.1 891.2 838.1 891.2 847.8V883.1C891.2 892.9 884.4 900.8 876 900.8Z" fill="#1677FF"/>
</svg>
