<svg width="20" height="24" viewBox="0 0 20 24" fill="none" xmlns="http://www.w3.org/2000/svg">
<path d="M19.2308 5.38462H20V5.06615L19.7754 4.84L19.2308 5.38462ZM14.6154 0.769231L15.16 0.224615L14.9338 0H14.6154V0.769231ZM8.46154 16.1538H7.69231V16.9231H8.46154V16.1538ZM5.38462 14.6154H6.15385V14.2969L5.92923 14.0708L5.38462 14.6154ZM2.30769 11.5385H1.53846V11.8569L1.76308 12.0831L2.30769 11.5385ZM14.6154 10V9.23077H13.8462V10H14.6154ZM14.6154 13.0769H13.8462V13.8462H14.6154V13.0769ZM17.6923 13.0769H18.4615V12.3077H17.6923V13.0769ZM17.6923 16.1538V16.9231H18.4615V16.1538H17.6923ZM2.30769 14.6154L1.76308 14.0708L1.53846 14.2969V14.6154H2.30769ZM5.38462 11.5385L5.92923 12.0831L6.15385 11.8569V11.5385H5.38462ZM1.53846 7.69231V2.30769H0V7.69231H1.53846ZM18.4615 5.38462V7.69231H20V5.38462H18.4615ZM2.30769 1.53846H14.6154V0H2.30769V1.53846ZM14.0708 1.31385L18.6862 5.92923L19.7754 4.84L15.16 0.224615L14.0708 1.31385ZM1.53846 2.30769C1.53846 2.10368 1.61951 1.90802 1.76376 1.76376C1.90802 1.61951 2.10368 1.53846 2.30769 1.53846V0C1.69565 0 1.10868 0.243131 0.675907 0.675908C0.243131 1.10868 0 1.69565 0 2.30769H1.53846ZM0 18.4615V20.7692H1.53846V18.4615H0ZM2.30769 23.0769H17.6923V21.5385H2.30769V23.0769ZM20 20.7692V18.4615H18.4615V20.7692H20ZM17.6923 23.0769C18.3043 23.0769 18.8913 22.8338 19.3241 22.401C19.7569 21.9682 20 21.3813 20 20.7692H18.4615C18.4615 20.9732 18.3805 21.1689 18.2362 21.3132C18.092 21.4574 17.8963 21.5385 17.6923 21.5385V23.0769ZM0 20.7692C0 21.3813 0.243131 21.9682 0.675907 22.401C1.10868 22.8338 1.69565 23.0769 2.30769 23.0769V21.5385C2.10368 21.5385 1.90802 21.4574 1.76376 21.3132C1.61951 21.1689 1.53846 20.9732 1.53846 20.7692H0ZM7.69231 9.23077V16.1538H9.23077V9.23077H7.69231ZM8.46154 16.9231H12.3077V15.3846H8.46154V16.9231ZM4.61538 14.6154V16.9231H6.15385V14.6154H4.61538ZM5.92923 14.0708L2.85231 10.9938L1.76308 12.0831L4.84 15.16L5.92923 14.0708ZM3.07692 11.5385V9.23077H1.53846V11.5385H3.07692ZM18.4615 9.23077H14.6154V10.7692H18.4615V9.23077ZM13.8462 10V13.0769H15.3846V10H13.8462ZM14.6154 13.8462H17.6923V12.3077H14.6154V13.8462ZM16.9231 13.0769V16.1538H18.4615V13.0769H16.9231ZM17.6923 15.3846H13.8462V16.9231H17.6923V15.3846ZM3.07692 16.9231V14.6154H1.53846V16.9231H3.07692ZM2.85231 15.16L5.92923 12.0831L4.84 10.9938L1.76308 14.0708L2.85231 15.16ZM6.15385 11.5385V9.23077H4.61538V11.5385H6.15385Z" fill="#5cb85c "/>
</svg>
