<svg width="29" height="30" viewBox="0 0 29 30" fill="none" xmlns="http://www.w3.org/2000/svg">
<path d="M14.5 25.625C20.506 25.625 25.375 20.4237 25.375 16.875C25.375 13.3263 20.506 8.125 14.5 8.125C8.49398 8.125 3.625 13.33 3.625 16.875C3.625 20.42 8.49398 25.625 14.5 25.625Z" stroke="#409eff" stroke-width="2" stroke-linejoin="round"/>
<path d="M14.5 20.625C15.4614 20.625 16.3834 20.2299 17.0633 19.5267C17.7431 18.8234 18.125 17.8696 18.125 16.875C18.125 15.8804 17.7431 14.9266 17.0633 14.2233C16.3834 13.5201 15.4614 13.125 14.5 13.125C13.5386 13.125 12.6166 13.5201 11.9367 14.2233C11.2569 14.9266 10.875 15.8804 10.875 16.875C10.875 17.8696 11.2569 18.8234 11.9367 19.5267C12.6166 20.2299 13.5386 20.625 14.5 20.625Z" stroke="#409eff" stroke-width="2" stroke-linejoin="round"/>
</svg>
