<svg width="494" height="433" viewBox="0 0 494 433" fill="none" xmlns="http://www.w3.org/2000/svg">
<g clip-path="url(#clip0_7_2)">
<path d="M0.690918 27.3911L0.692819 27.3907L11.661 63.2343C7.8089 51.4966 4.14352 39.5544 0.690918 27.3911Z" fill="#7E8287"/>
<path d="M0.690918 27.3919L0.695089 27.39L1.44116 27.2301L19.2242 85.343C12.5345 66.592 6.33602 47.2782 0.690918 27.3919Z" fill="#7E8388"/>
<path d="M2.18915 27.0695L24.0802 98.6088C21.3457 91.3068 18.6841 83.9208 16.102 76.4434L1.06738 27.3103L2.18915 27.0695Z" fill="#7F8388"/>
<path d="M2.93559 26.9092L28.1246 109.223C25.9763 103.699 23.8712 98.1231 21.8102 92.4965L1.81421 27.15L2.93559 26.9092Z" fill="#7F8389"/>
<path d="M3.68354 26.7483L31.6467 118.129C29.7872 113.493 27.9594 108.817 26.16 104.106L2.56177 26.9894L3.68354 26.7483Z" fill="#808489"/>
<path d="M4.43144 26.5876L34.8649 126.042C33.1917 121.984 31.5439 117.895 29.9179 113.78L3.31006 26.8291L4.43144 26.5876Z" fill="#80848A"/>
<path d="M5.17986 26.427L37.8588 133.219C36.316 129.567 34.7936 125.888 33.2878 122.189L4.05811 26.6678L5.17986 26.427Z" fill="#81858A"/>
<path d="M5.9279 26.2667L40.6791 139.831C39.2301 136.476 37.8007 133.095 36.3833 129.7L4.80615 26.5075L5.9279 26.2667Z" fill="#81858B"/>
<path d="M6.675 26.1061L43.3417 145.929C41.9705 142.818 40.6155 139.684 39.2715 136.537L5.55249 26.3468L6.675 26.1061Z" fill="#82868B"/>
<path d="M7.42229 25.9451L45.8809 151.625C44.5781 148.725 43.2877 145.808 42.0091 142.877L6.30054 26.1862L7.42229 25.9451Z" fill="#82868C"/>
<path d="M8.17035 25.7844L48.3343 157.038C47.087 154.309 45.8485 151.568 44.622 148.813L7.04858 26.0259L8.17035 25.7844Z" fill="#83878C"/>
<path d="M8.91977 25.6281L50.7176 162.22C49.5149 159.635 48.321 157.038 47.1368 154.427L7.79688 25.8646L8.91977 25.6281Z" fill="#83878C"/>
<path d="M9.66923 25.4723L53.0057 167.092C51.8393 164.623 50.6813 162.142 49.5323 159.65L8.54443 25.7059L9.66923 25.4723Z" fill="#84888D"/>
<path d="M10.4182 25.3169L55.2329 171.768C54.1005 169.406 52.9765 167.034 51.8592 164.652L9.29346 25.5509L10.4182 25.3169Z" fill="#84888D"/>
<path d="M11.1668 25.1613L57.4214 176.317C56.3189 174.051 55.2247 171.773 54.1362 169.487L10.0427 25.3949L11.1668 25.1613Z" fill="#85898E"/>
<path d="M11.916 25.0051L59.5301 180.605C58.4567 178.428 57.389 176.243 56.3285 174.048L10.792 25.2391L11.916 25.0051Z" fill="#85898E"/>
<path d="M12.6652 24.8502L61.6116 184.802C60.5601 182.698 59.5158 180.583 58.4764 178.463L11.5415 25.0834L12.6652 24.8502Z" fill="#868A8F"/>
<path d="M13.4148 24.6941L63.647 188.847C62.622 186.822 61.6 184.792 60.586 182.751L12.2908 24.9273L13.4148 24.6941Z" fill="#868A8F"/>
<path d="M14.1638 24.5384L65.638 192.752C64.6292 190.784 63.6261 188.806 62.6283 186.822L13.0398 24.772L14.1638 24.5384Z" fill="#878B90"/>
<path d="M14.9128 24.3827L67.6059 196.579C66.6172 194.673 65.633 192.761 64.6548 190.84L13.7888 24.6163L14.9128 24.3827Z" fill="#878B90"/>
<path d="M15.662 24.2273L69.5252 200.247C68.5527 198.393 67.5851 196.533 66.6221 194.665L14.5383 24.4605L15.662 24.2273Z" fill="#888C91"/>
<path d="M16.4119 24.075L71.432 203.875C70.4742 202.069 69.5222 200.254 68.5731 198.435L15.2878 24.3044L16.4119 24.075Z" fill="#888C91"/>
<path d="M17.1628 23.9242L73.2914 207.347C72.3507 205.591 71.4126 203.831 70.4798 202.063L16.0376 24.1498L17.1628 23.9242Z" fill="#898D92"/>
<path d="M17.9143 23.7737L75.1439 210.795C74.2133 209.078 73.2881 207.352 72.3659 205.622L16.7883 23.9994L17.9143 23.7737Z" fill="#898D92"/>
<path d="M18.6649 23.623L76.9524 214.101C76.037 212.43 75.1246 210.753 74.2167 209.07L17.5386 23.8486L18.6649 23.623Z" fill="#8A8E93"/>
<path d="M19.415 23.4725L78.7536 217.386C77.8487 215.75 76.9492 214.105 76.0512 212.458L18.2891 23.6982L19.415 23.4725Z" fill="#8A8E93"/>
<path d="M20.1657 23.3217L80.5198 220.553C79.6279 218.956 78.7397 217.353 77.8541 215.745L19.0405 23.5474L20.1657 23.3217Z" fill="#8B8F94"/>
<path d="M20.9168 23.1713L82.2774 223.69C81.3964 222.128 80.5177 220.56 79.6431 218.986L19.7913 23.397L20.9168 23.1713Z" fill="#8B8F94"/>
<path d="M21.6678 23.0201L84.0073 226.739C83.1346 225.205 82.2653 223.666 81.3987 222.122L20.5422 23.2461L21.6678 23.0201Z" fill="#8C8F95"/>
<path d="M22.4188 22.8693L85.7217 229.738C84.8615 228.241 84.002 226.744 83.1486 225.237L21.2925 23.0957L22.4188 22.8693Z" fill="#8C9095"/>
<path d="M23.1694 22.7189L87.4202 232.685C86.5645 231.209 85.7141 229.724 84.8641 228.238L22.0435 22.9449L23.1694 22.7189Z" fill="#8D9096"/>
<path d="M23.9207 22.5712L89.0968 235.559C88.2559 234.121 87.4138 232.685 86.5789 231.238L22.7937 22.7945L23.9207 22.5712Z" fill="#8D9196"/>
<path d="M24.6731 22.4256L90.7691 238.42C89.9281 236.995 89.0944 235.558 88.2595 234.123L23.5457 22.6437L24.6731 22.4256Z" fill="#8E9197"/>
<path d="M25.4255 22.2797L92.4101 241.178C91.5832 239.787 90.7562 238.396 89.9345 236.997L24.2974 22.4982L25.4255 22.2797Z" fill="#8E9297"/>
<path d="M26.1781 22.1338L94.0501 243.935C93.2262 242.561 92.4075 241.18 91.5885 239.797L25.0496 22.3523L26.1781 22.1338Z" fill="#8F9298"/>
<path d="M26.93 21.9883L95.6656 246.611C94.8515 245.263 94.0392 243.911 93.2297 242.556L25.8018 22.2072L26.93 21.9883Z" fill="#8F9398"/>
<path d="M27.6822 21.8428L97.2727 249.258C96.4673 247.937 95.663 246.616 94.8621 245.286L26.5532 22.0609L27.6822 21.8428Z" fill="#909399"/>
<path d="M28.4346 21.6969L98.871 251.878C98.0675 250.57 97.2689 249.253 96.4699 247.936L27.3057 21.9157L28.4346 21.6969Z" fill="#909499"/>
<path d="M29.1863 21.5518L100.448 254.427C99.6567 253.148 98.8645 251.872 98.0772 250.585L28.0581 21.7699L29.1863 21.5518Z" fill="#91949A"/>
<path d="M29.9395 21.4055L102.026 256.977C101.234 255.708 100.447 254.43 99.6597 253.153L28.8105 21.6244L29.9395 21.4055Z" fill="#91959A"/>
<path d="M30.6921 21.2596L103.58 259.451C102.797 258.205 102.016 256.955 101.237 255.701L29.5627 21.4785L30.6921 21.2596Z" fill="#92959A"/>
<path d="M31.4445 21.1168L105.127 261.906C104.352 260.681 103.577 259.456 102.806 258.225L30.3145 21.3329L31.4445 21.1168Z" fill="#92969B"/>
<path d="M32.1983 20.9758L106.671 264.345C105.895 263.129 105.126 261.903 104.354 260.681L31.0679 21.1871L32.1983 20.9758Z" fill="#93969B"/>
<path d="M32.9518 20.8352L108.192 266.712C107.428 265.522 106.663 264.333 105.902 263.136L31.8213 21.0461L32.9518 20.8352Z" fill="#93979C"/>
<path d="M33.7065 20.6946L109.714 269.081C108.951 267.901 108.19 266.715 107.431 265.529L32.575 20.9055L33.7065 20.6946Z" fill="#94979C"/>
<path d="M34.4603 20.5536L111.221 271.403C110.463 270.238 109.708 269.068 108.953 267.896L33.3291 20.7649L34.4603 20.5536Z" fill="#94989D"/>
<path d="M35.2131 20.413L112.716 273.686C111.968 272.544 111.218 271.407 110.473 270.259L34.0823 20.6239L35.2131 20.413Z" fill="#95989D"/>
<path d="M35.9676 20.2724L114.213 275.971C113.462 274.834 112.717 273.689 111.969 272.545L34.8364 20.4833L35.9676 20.2724Z" fill="#95999E"/>
<path d="M36.7213 20.1314L115.69 278.194C114.947 277.075 114.205 275.955 113.466 274.83L35.5908 20.3427L36.7213 20.1314Z" fill="#96999E"/>
<path d="M37.4755 19.9908L117.163 280.403C116.426 279.301 115.688 278.199 114.954 277.09L36.3442 20.2017L37.4755 19.9908Z" fill="#969A9F"/>
<path d="M38.2291 19.8502L118.635 282.609C117.895 281.511 117.162 280.403 116.426 279.299L37.0986 20.0611L38.2291 19.8502Z" fill="#979A9F"/>
<path d="M38.9829 19.7112L120.084 284.743C119.354 283.666 118.625 282.589 117.898 281.505L37.8513 19.9206L38.9829 19.7112Z" fill="#979AA0"/>
<path d="M39.7387 19.5751L121.535 286.879C120.809 285.814 120.083 284.748 119.36 283.677L38.6052 19.7796L39.7387 19.5751Z" fill="#989BA0"/>
<path d="M40.4932 19.4394L122.981 289.001C122.255 287.943 121.533 286.875 120.809 285.81L39.3601 19.6431L40.4932 19.4394Z" fill="#989BA1"/>
<path d="M41.2483 19.3041L124.411 291.07C123.693 290.031 122.975 288.992 122.261 287.947L40.1167 19.5074L41.2483 19.3041Z" fill="#999CA1"/>
<path d="M42.0043 19.168L125.841 293.137C125.125 292.106 124.409 291.073 123.696 290.035L40.8716 19.3714L42.0043 19.168Z" fill="#999CA2"/>
<path d="M42.7597 19.0323L127.265 295.186C126.549 294.163 125.837 293.13 125.125 292.101L41.6262 19.2361L42.7597 19.0323Z" fill="#9A9DA2"/>
<path d="M43.5153 18.8962L128.674 297.189C127.967 296.184 127.259 295.18 126.555 294.169L42.3818 19.1003L43.5153 18.8962Z" fill="#9A9DA3"/>
<path d="M44.2699 18.761L130.083 299.19C129.377 298.192 128.672 297.192 127.969 296.188L43.1372 18.9643L44.2699 18.761Z" fill="#9B9EA3"/>
<path d="M45.0254 18.6252L131.488 301.177C130.783 300.186 130.082 299.187 129.38 298.191L43.8931 18.8289L45.0254 18.6252Z" fill="#9B9EA4"/>
<path d="M45.7806 18.49L132.879 303.118C132.182 302.144 131.484 301.173 130.789 300.193L44.6487 18.693L45.7806 18.49Z" fill="#9C9FA4"/>
<path d="M46.5365 18.355L134.27 305.058C133.573 304.09 132.878 303.119 132.183 302.147L45.4038 18.5573L46.5365 18.355Z" fill="#9C9FA5"/>
<path d="M47.2941 18.2242L135.657 306.985C134.961 306.024 134.268 305.054 133.574 304.087L46.1587 18.4219L47.2941 18.2242Z" fill="#9DA0A5"/>
<path d="M48.05 18.0931L137.029 308.868C136.341 307.923 135.652 306.98 134.965 306.029L46.915 18.2893L48.05 18.0931Z" fill="#9DA0A6"/>
<path d="M48.807 17.9624L138.404 310.754C137.716 309.814 137.029 308.873 136.344 307.928L47.6724 18.1586L48.807 17.9624Z" fill="#9EA1A6"/>
<path d="M49.5635 17.8324L139.774 312.629C139.086 311.695 138.402 310.751 137.717 309.812L48.4297 18.0282L49.5635 17.8324Z" fill="#9EA1A7"/>
<path d="M50.3214 17.7012L141.131 314.458C140.45 313.538 139.768 312.619 139.089 311.695L49.186 17.8973L50.3214 17.7012Z" fill="#9FA2A7"/>
<path d="M51.0776 17.5704L142.487 316.285C141.807 315.373 141.128 314.46 140.451 313.542L49.9426 17.7666L51.0776 17.5704Z" fill="#9FA2A8"/>
<path d="M51.8352 17.4396L143.842 318.112C143.163 317.203 142.486 316.284 141.808 315.37L50.6995 17.6354L51.8352 17.4396Z" fill="#A0A3A8"/>
<path d="M52.5918 17.3092L145.182 319.888C144.509 318.993 143.836 318.099 143.165 317.199L51.4561 17.5054L52.5918 17.3092Z" fill="#A0A3A9"/>
<path d="M53.3481 17.1785L146.523 321.665C145.852 320.778 145.182 319.893 144.513 319.001L52.2131 17.3746L53.3481 17.1785Z" fill="#A1A4A9"/>
<path d="M54.106 17.0481L147.864 323.442C147.192 322.558 146.523 321.665 145.852 320.776L52.9702 17.2435L54.106 17.0481Z" fill="#A1A4A9"/>
<path d="M54.8641 16.9222L149.192 325.179C148.525 324.306 147.859 323.431 147.193 322.553L53.7268 17.1127L54.8641 16.9222Z" fill="#A2A5AA"/>
<path d="M55.6227 16.7964L150.517 326.905C149.854 326.042 149.19 325.182 148.529 324.314L54.4839 16.9854L55.6227 16.7964Z" fill="#A2A5AA"/>
<path d="M56.3803 16.6709L151.842 328.632C151.178 327.772 150.517 326.907 149.855 326.042L55.2427 16.8599L56.3803 16.6709Z" fill="#A3A5AB"/>
<path d="M57.1386 16.5454L153.159 330.333C152.499 329.482 151.839 328.625 151.18 327.769L56.001 16.7336L57.1386 16.5454Z" fill="#A3A6AB"/>
<path d="M57.8974 16.4196L154.471 332.013C153.816 331.173 153.159 330.339 152.505 329.494L56.7598 16.6082L57.8974 16.4196Z" fill="#A4A6AC"/>
<path d="M58.6563 16.2933L155.782 333.693C155.125 332.855 154.47 332.015 153.815 331.173L57.5183 16.4823L58.6563 16.2933Z" fill="#A4A7AC"/>
<path d="M59.4145 16.1678L157.088 335.361C156.433 334.529 155.78 333.689 155.126 332.852L58.2761 16.3568L59.4145 16.1678Z" fill="#A5A7AD"/>
<path d="M60.1723 16.0424L158.386 336.995C157.736 336.174 157.086 335.357 156.437 334.532L59.0347 16.2313L60.1723 16.0424Z" fill="#A5A8AD"/>
<path d="M60.9305 15.9165L159.683 338.629C159.035 337.814 158.386 336.999 157.738 336.179L59.7932 16.1051L60.9305 15.9165Z" fill="#A6A8AE"/>
<path d="M61.6891 15.791L160.98 340.264C160.331 339.452 159.684 338.63 159.035 337.813L60.5522 15.9796L61.6891 15.791Z" fill="#A6A9AE"/>
<path d="M62.4495 15.6701L162.266 341.863L160.332 339.447L61.3103 15.8538L62.4495 15.6701Z" fill="#A7A9AF"/>
<path d="M63.2096 15.5491L163.549 343.453C162.908 342.658 162.265 341.865 161.624 341.066L62.0693 15.7305L63.2096 15.5491Z" fill="#A7AAAF"/>
<path d="M63.9693 15.4286L164.834 345.044C164.19 344.251 163.549 343.453 162.907 342.657L62.8286 15.6096L63.9693 15.4286Z" fill="#A8AAB0"/>
<path d="M64.7285 15.3083L166.111 346.617C165.47 345.831 164.832 345.04 164.192 344.25L63.5886 15.489L64.7285 15.3083Z" fill="#A8ABB0"/>
<path d="M65.488 15.1874L167.383 348.167C166.747 347.391 166.11 346.62 165.475 345.84L64.3496 15.3681L65.488 15.1874Z" fill="#A9ABB1"/>
<path d="M66.248 15.0665L168.654 349.717C168.018 348.944 167.383 348.169 166.748 347.393L65.1096 15.2479L66.248 15.0665Z" fill="#A9ACB1"/>
<path d="M67.0088 14.9459L169.925 351.267C169.288 350.496 168.654 349.716 168.018 348.941L65.8689 15.127L67.0088 14.9459Z" fill="#AAACB2"/>
<path d="M67.7689 14.825L171.184 352.778C170.552 352.017 169.919 351.256 169.289 350.49L66.6287 15.0064L67.7689 14.825Z" fill="#AAADB2"/>
<path d="M68.529 14.704L172.443 354.289C171.814 353.534 171.183 352.781 170.555 352.022L67.3887 14.8855L68.529 14.704Z" fill="#ABADB3"/>
<path d="M69.2878 14.5839L173.703 355.799C173.073 355.047 172.443 354.29 171.814 353.534L68.1487 14.7645L69.2878 14.5839Z" fill="#ABAEB3"/>
<path d="M70.0495 14.4674L174.957 357.294C174.329 356.547 173.701 355.795 173.073 355.044L68.9092 14.6443L70.0495 14.4674Z" fill="#ACAEB4"/>
<path d="M70.8114 14.3518L176.205 358.766C175.581 358.028 174.955 357.296 174.331 356.554L69.6692 14.5257L70.8114 14.3518Z" fill="#ACAFB4"/>
<path d="M71.5734 14.2361L177.452 360.239L175.58 358.028L70.4304 14.4099L71.5734 14.2361Z" fill="#ADAFB5"/>
<path d="M72.3346 14.1205L178.7 361.711C178.074 360.979 177.452 360.238 176.828 359.502L71.1924 14.2944L72.3346 14.1205Z" fill="#ADB0B5"/>
<path d="M73.095 14.0045L179.936 363.152C179.316 362.427 178.695 361.703 178.076 360.975L71.9536 14.1783L73.095 14.0045Z" fill="#AEB0B6"/>
<path d="M73.8569 13.8888L181.174 364.589C180.556 363.871 179.936 363.156 179.319 362.435L72.7158 14.0627L73.8569 13.8888Z" fill="#AEB0B6"/>
<path d="M74.6181 13.7731L182.41 366.025C181.791 365.31 181.173 364.59 180.556 363.87L73.4771 13.947L74.6181 13.7731Z" fill="#AFB1B7"/>
<path d="M75.3805 13.6575L183.643 367.451C183.025 366.739 182.408 366.021 181.791 365.305L74.2383 13.8314L75.3805 13.6575Z" fill="#AFB1B7"/>
<path d="M76.1417 13.5419L184.869 368.852C184.255 368.149 183.641 367.449 183.027 366.742L74.9995 13.7157L76.1417 13.5419Z" fill="#B0B2B7"/>
<path d="M76.9022 13.4258L186.093 370.252C185.48 369.553 184.868 368.854 184.256 368.151L75.7607 13.5997L76.9022 13.4258Z" fill="#B0B2B8"/>
<path d="M77.666 13.3151L187.319 371.654C186.706 370.957 186.095 370.254 185.482 369.553L76.522 13.484L77.666 13.3151Z" fill="#B1B3B8"/>
<path d="M78.4282 13.2039L188.539 373.035C187.928 372.344 187.318 371.649 186.708 370.954L77.2842 13.3702L78.4282 13.2039Z" fill="#B1B3B9"/>
<path d="M79.1926 13.0932L189.755 374.404C189.147 373.718 188.539 373.038 187.931 372.351L78.0474 13.2595L79.1926 13.0932Z" fill="#B2B4B9"/>
<path d="M79.9551 12.9828L190.969 375.771L189.147 373.719L78.8103 13.1487L79.9551 12.9828Z" fill="#B2B4BA"/>
<path d="M80.7176 12.8724L192.185 377.138C191.576 376.458 190.97 375.769 190.362 375.086L79.5728 13.038L80.7176 12.8724Z" fill="#B3B5BA"/>
<path d="M81.4806 12.7614L193.392 378.476C192.787 377.804 192.182 377.131 191.578 376.456L80.3362 12.9277L81.4806 12.7614Z" fill="#B3B5BB"/>
<path d="M82.2436 12.6506L194.598 379.813C193.995 379.145 193.392 378.48 192.789 377.809L81.0991 12.8165L82.2436 12.6506Z" fill="#B4B6BB"/>
<path d="M83.0072 12.5403L195.804 381.149C195.2 380.484 194.597 379.814 193.995 379.145L81.8628 12.7062L83.0072 12.5403Z" fill="#B4B6BC"/>
<path d="M83.7702 12.4291L197.007 382.479C196.404 381.816 195.803 381.146 195.2 380.48L82.6257 12.5954L83.7702 12.4291Z" fill="#B5B7BC"/>
<path d="M84.533 12.3187L198.203 383.782C197.604 383.127 197.003 382.474 196.406 381.816L83.3875 12.485L84.533 12.3187Z" fill="#B5B7BD"/>
<path d="M85.2972 12.2122L199.399 385.087C198.801 384.436 198.203 383.785 197.606 383.131L84.1509 12.3739L85.2972 12.2122Z" fill="#B6B8BD"/>
<path d="M86.0613 12.1064L200.595 386.392C199.997 385.743 199.399 385.088 198.801 384.435L84.9138 12.2651L86.0613 12.1064Z" fill="#B6B8BE"/>
<path d="M86.8264 12.0005L201.788 387.685C201.191 387.039 200.594 386.389 199.997 385.739L85.6797 12.1592L86.8264 12.0005Z" fill="#B7B9BE"/>
<path d="M87.5913 11.8947L202.975 388.96C202.381 388.321 201.786 387.687 201.193 387.045L86.4438 12.0535L87.5913 11.8947Z" fill="#B7B9BF"/>
<path d="M88.3555 11.7896L204.161 390.233L202.381 388.321L87.208 11.9484L88.3555 11.7896Z" fill="#B8BABF"/>
<path d="M89.1194 11.6838L205.348 391.508C204.754 390.874 204.162 390.235 203.569 389.598L87.9727 11.8426L89.1194 11.6838Z" fill="#B8BAC0"/>
<path d="M89.8835 11.5784L206.529 392.765C205.937 392.136 205.346 391.504 204.755 390.872L88.7368 11.7367L89.8835 11.5784Z" fill="#B9BBC0"/>
<path d="M90.6481 11.4725L207.708 394.013C207.12 393.389 206.529 392.77 205.941 392.144L89.5022 11.6309L90.6481 11.4725Z" fill="#B9BBC1"/>
<path d="M91.4124 11.3667L208.887 395.259L207.119 393.389L90.2668 11.525L91.4124 11.3667Z" fill="#BABCC1"/>
<path d="M92.1777 11.2609L210.064 396.504C209.474 395.885 208.886 395.257 208.297 394.635L91.031 11.4196L92.1777 11.2609Z" fill="#BABCC2"/>
<path d="M92.9435 11.1592L211.236 397.729L209.475 395.881L91.7949 11.3138L92.9435 11.1592Z" fill="#BBBCC2"/>
<path d="M93.7088 11.0587L212.405 398.946C211.821 398.337 211.235 397.732 210.651 397.12L92.5598 11.2098L93.7088 11.0587Z" fill="#BBBDC3"/>
<path d="M94.4753 10.9581L213.576 400.166L211.821 398.339L93.3267 11.1086L94.4753 10.9581Z" fill="#BCBDC3"/>
<path d="M95.241 10.8572L214.745 401.383C214.159 400.778 213.576 400.164 212.991 399.556L94.0928 11.008L95.241 10.8572Z" fill="#BCBEC4"/>
<path d="M96.0076 10.7567L215.907 402.578C215.325 401.977 214.742 401.377 214.159 400.773L94.8586 10.9075L96.0076 10.7567Z" fill="#BDBEC4"/>
<path d="M96.774 10.6554L217.068 403.769C216.487 403.173 215.907 402.58 215.326 401.981L95.6243 10.8069L96.774 10.6554Z" fill="#BDBFC5"/>
<path d="M97.5394 10.5557L218.23 404.96L216.487 403.173L96.3904 10.7061L97.5394 10.5557Z" fill="#BEBFC5"/>
<path d="M98.3051 10.4543L219.392 406.152C218.81 405.56 218.23 404.96 217.649 404.364L97.1565 10.6055L98.3051 10.4543Z" fill="#BEC0C6"/>
<path d="M99.0717 10.3538L220.546 407.318L218.811 405.556L97.9231 10.505L99.0717 10.3538Z" fill="#BFC0C6"/>
<path d="M99.8382 10.2533L221.699 408.483C221.122 407.9 220.545 407.321 219.968 406.734L98.6892 10.4045L99.8382 10.2533Z" fill="#BFC1C6"/>
<path d="M100.605 10.1561L222.851 409.647L221.122 407.899L99.4548 10.3039L100.605 10.1561Z" fill="#C0C1C7"/>
<path d="M101.373 10.0605L224.004 410.811C223.427 410.233 222.851 409.646 222.275 409.064L100.221 10.2037L101.373 10.0605Z" fill="#C0C2C7"/>
<path d="M102.14 9.96527L225.15 411.952C224.577 411.379 224.002 410.806 223.428 410.23L100.988 10.1085L102.14 9.96527Z" fill="#C1C2C8"/>
<path d="M102.907 9.86926L226.297 413.093C225.724 412.523 225.151 411.956 224.579 411.383L101.756 10.0129L102.907 9.86926Z" fill="#C1C3C8"/>
<path d="M103.675 9.77399L227.442 414.233L225.724 412.523L102.524 9.91686L103.675 9.77399Z" fill="#C2C3C9"/>
<path d="M104.443 9.67877L228.589 415.373C228.015 414.807 227.442 414.232 226.869 413.663L103.292 9.82165L104.443 9.67877Z" fill="#C2C4C9"/>
<path d="M105.211 9.58276L229.726 416.488L228.015 414.803L104.059 9.72638L105.211 9.58276Z" fill="#C3C4CA"/>
<path d="M105.978 9.48718L230.864 417.603C230.295 417.045 229.727 416.491 229.158 415.931L104.826 9.63083L105.978 9.48718Z" fill="#C3C5CA"/>
<path d="M106.746 9.39191L232.002 418.718L230.296 417.046L105.594 9.53515L106.746 9.39191Z" fill="#C4C5CB"/>
<path d="M107.513 9.2959L233.141 419.835C232.572 419.281 232.003 418.718 231.434 418.162L106.362 9.43951L107.513 9.2959Z" fill="#C4C6CB"/>
<path d="M108.282 9.2041L234.272 420.928C233.705 420.378 233.138 419.829 232.572 419.277L107.13 9.34432L108.282 9.2041Z" fill="#C5C6CC"/>
<path d="M109.052 9.11334L235.403 422.019C234.838 421.473 234.271 420.93 233.706 420.381L107.898 9.24939L109.052 9.11334Z" fill="#C5C7CC"/>
<path d="M109.821 9.02264L236.534 423.111L234.838 421.474L108.666 9.15873L109.821 9.02264Z" fill="#C6C7CD"/>
<path d="M110.589 8.93268L237.665 424.203C237.1 423.661 236.535 423.11 235.97 422.566L109.436 9.06799L110.589 8.93268Z" fill="#C6C7CD"/>
<path d="M111.359 8.84204L238.79 425.274C238.227 424.736 237.663 424.199 237.1 423.658L110.205 8.97809L111.359 8.84204Z" fill="#C7C8CE"/>
<path d="M112.129 8.75092L239.914 426.343C239.352 425.808 238.79 425.276 238.228 424.739L110.975 8.88733L112.129 8.75092Z" fill="#C7C8CE"/>
<path d="M112.898 8.66016L241.038 427.412L239.351 425.808L111.744 8.79661L112.898 8.66016Z" fill="#C8C9CF"/>
<path d="M113.666 8.57019L242.161 428.48C241.599 427.949 241.037 427.41 240.475 426.877L112.512 8.7055L113.666 8.57019Z" fill="#C8C9CF"/>
<path d="M114.435 8.47955L243.28 429.53L241.601 427.947L113.282 8.61564L114.435 8.47955Z" fill="#C9CAD0"/>
<path d="M115.204 8.38879L244.397 430.577C243.838 430.054 243.28 429.534 242.721 429.007L114.051 8.52484L115.204 8.38879Z" fill="#C9CAD0"/>
<path d="M115.974 8.30225L245.515 431.624L243.838 430.054L114.821 8.43416L115.974 8.30225Z" fill="#CACBD1"/>
<path d="M116.746 8.21686L246.631 432.671C246.073 432.151 245.514 431.623 244.955 431.1L115.59 8.3446L116.746 8.21686Z" fill="#CACBD1"/>
<path d="M117.516 8.13104L247.376 432.502L246.913 432.935L246.072 432.146L116.36 8.25919L117.516 8.13104Z" fill="#CBCCD2"/>
<path d="M118.287 8.04565L247.995 431.922L247.066 432.792L117.131 8.17377L118.287 8.04565Z" fill="#CBCCD2"/>
<path d="M119.057 7.96027L248.614 431.341L247.686 432.211L117.902 8.08801L119.057 7.96027Z" fill="#CCCDD3"/>
<path d="M119.828 7.87476L249.235 430.76L248.305 431.631L118.673 8.00254L119.828 7.87476Z" fill="#CCCDD3"/>
<path d="M120.599 7.78937L249.854 430.18L248.924 431.051L119.443 7.91711L120.599 7.78937Z" fill="#CDCED4"/>
<path d="M121.37 7.70361L250.472 429.601L249.544 430.471L120.214 7.83173L121.37 7.70361Z" fill="#CDCED4"/>
<path d="M122.141 7.61816L251.092 429.02L250.163 429.89L120.985 7.74628L122.141 7.61816Z" fill="#CECFD4"/>
<path d="M122.911 7.53271L251.71 428.438L250.782 429.31L121.754 7.66086L122.911 7.53271Z" fill="#CECFD5"/>
<path d="M123.683 7.45074L252.329 427.849L251.402 428.729L122.526 7.57509L123.683 7.45074Z" fill="#CFD0D5"/>
<path d="M124.455 7.37061L252.946 427.263L252.019 428.144L123.297 7.49082C123.683 7.44924 124.069 7.4118 124.455 7.37061Z" fill="#CFD0D6"/>
<path d="M125.228 7.28973L253.563 426.676L252.636 427.557L124.069 7.41069L125.228 7.28973Z" fill="#D0D1D6"/>
<path d="M126 7.20959L254.179 426.089L253.254 426.97L124.841 7.32977L126 7.20959Z" fill="#D0D1D7"/>
<path d="M126.771 7.12909L254.797 425.502L253.871 426.382L125.614 7.24967L126.771 7.12909Z" fill="#D1D2D7"/>
<path d="M127.544 7.04822L255.413 424.916L254.488 425.796L126.385 7.16913L127.544 7.04822Z" fill="#D1D2D8"/>
<path d="M128.316 6.96814L256.031 424.328C255.723 424.624 255.413 424.914 255.105 425.208L127.158 7.08869L128.316 6.96814Z" fill="#D2D2D8"/>
<path d="M129.089 6.88721L256.647 423.735L255.722 424.622L127.931 7.00816L129.089 6.88721Z" fill="#D2D3D9"/>
<path d="M129.861 6.80707L257.261 423.141L256.338 424.032L128.703 6.92802L129.861 6.80707Z" fill="#D3D3D9"/>
<path d="M130.633 6.72699L257.876 422.548L256.954 423.438L129.475 6.84717L130.633 6.72699Z" fill="#D3D4DA"/>
<path d="M131.406 6.64984L258.491 421.953L257.57 422.844L130.247 6.76699L131.406 6.64984Z" fill="#D4D4DA"/>
<path d="M132.18 6.57428L259.107 421.359L258.184 422.25L131.019 6.68726L132.18 6.57428Z" fill="#D4D5DB"/>
<path d="M132.955 6.49939L259.723 420.765L258.8 421.656L131.794 6.61204L132.955 6.49939Z" fill="#D5D5DB"/>
<path d="M133.728 6.42383L260.337 420.171L259.414 421.063L132.568 6.53648L133.728 6.42383Z" fill="#D5D6DC"/>
<path d="M134.503 6.34863L260.952 419.575L260.03 420.469L133.34 6.46165L134.503 6.34863Z" fill="#D6D6DC"/>
<path d="M135.276 6.27307L261.564 418.974L260.645 419.874L134.114 6.38609L135.276 6.27307Z" fill="#D6D7DD"/>
<path d="M136.049 6.19824L262.177 418.373L261.258 419.274L134.888 6.31085L136.049 6.19824Z" fill="#D7D7DD"/>
<path d="M136.823 6.12262L262.791 417.772L261.871 418.673L135.663 6.23523L136.823 6.12262Z" fill="#D7D8DE"/>
<path d="M137.598 6.04736L263.404 417.171L262.484 418.073L136.437 6.16038L137.598 6.04736Z" fill="#D8D8DE"/>
<path d="M138.371 5.9718L264.017 416.571L263.097 417.472L137.21 6.08482L138.371 5.9718Z" fill="#D8D9DF"/>
<path d="M139.146 5.90039L264.629 415.97L263.711 416.87L137.984 6.00961L139.146 5.90039Z" fill="#D9D9DF"/>
<path d="M139.92 5.83008L265.242 415.369C264.937 415.671 264.629 415.969 264.324 416.27L138.758 5.93553L139.92 5.83008Z" fill="#D9DAE0"/>
<path d="M140.696 5.76013L265.853 414.761L264.936 415.67L139.534 5.86558L140.696 5.76013Z" fill="#DADAE0"/>
<path d="M141.471 5.68982L266.465 414.153L265.548 415.065L140.309 5.79527L141.471 5.68982Z" fill="#DADBE1"/>
<path d="M142.247 5.61951L267.075 413.545L266.158 414.458L141.084 5.72496L142.247 5.61951Z" fill="#DBDBE1"/>
<path d="M143.023 5.54926L267.686 412.938L266.77 413.85L141.86 5.6543L143.023 5.54926Z" fill="#DBDCE2"/>
<path d="M143.797 5.47937L268.296 412.33L267.38 413.242L142.635 5.58482L143.797 5.47937Z" fill="#DCDCE2"/>
<path d="M144.573 5.40906L268.909 411.722L267.991 412.634L143.41 5.51451L144.573 5.40906Z" fill="#DCDDE3"/>
<path d="M145.348 5.33875L269.519 411.114L268.602 412.026L144.186 5.44383L145.348 5.33875Z" fill="#DDDDE3"/>
<path d="M146.124 5.26843L270.129 410.503L269.213 411.419L144.961 5.37351L146.124 5.26843Z" fill="#DDDEE3"/>
<path d="M146.901 5.2019L270.737 409.888L269.824 410.81L145.736 5.30396L146.901 5.2019Z" fill="#DEDEE4"/>
<path d="M147.678 5.1369L271.346 409.273L270.432 410.196L146.512 5.23442L147.678 5.1369Z" fill="#DEDEE4"/>
<path d="M148.454 5.0719L271.955 408.658L271.041 409.58L147.289 5.16941L148.454 5.0719Z" fill="#DFDFE5"/>
<path d="M149.231 5.00647L272.564 408.043L271.65 408.965L148.066 5.10435L149.231 5.00647Z" fill="#DFDFE5"/>
<path d="M150.009 4.94153L273.172 407.428L272.259 408.351L148.843 5.03941L150.009 4.94153Z" fill="#E0E0E6"/>
<path d="M150.785 4.87653L273.78 406.813L272.867 407.736L149.62 4.974L150.785 4.87653Z" fill="#E0E0E6"/>
<path d="M151.562 4.8111L274.389 406.198L273.476 407.121L150.397 4.90898L151.562 4.8111Z" fill="#E1E1E7"/>
<path d="M152.339 4.74615L274.995 405.577L274.085 406.506L151.174 4.84404L152.339 4.74615Z" fill="#E1E1E7"/>
<path d="M153.116 4.68109L275.602 404.954L274.693 405.887L151.95 4.77861L153.116 4.68109Z" fill="#E2E2E8"/>
<path d="M153.893 4.61572L276.209 404.332L275.299 405.265L152.728 4.71361L153.893 4.61572Z" fill="#E2E2E8"/>
<path d="M154.671 4.55481L276.815 403.71L275.905 404.643L153.505 4.64856L154.671 4.55481Z" fill="#E3E3E9"/>
<path d="M155.45 4.49475L277.421 403.088L276.512 404.021L154.282 4.58433L155.45 4.49475Z" fill="#E3E3E9"/>
<path d="M156.228 4.43433L278.028 402.467L277.119 403.399L155.06 4.52464L156.228 4.43433Z" fill="#E4E4EA"/>
<path d="M157.007 4.37463L278.634 401.844L277.726 402.777L155.838 4.46458L157.007 4.37463Z" fill="#E4E4EA"/>
<path d="M157.785 4.31451L279.24 401.218L278.332 402.154L156.618 4.40483L157.785 4.31451Z" fill="#E5E5EB"/>
<path d="M158.564 4.25476L279.845 400.588L278.938 401.533L157.396 4.34471L158.564 4.25476Z" fill="#E5E5EB"/>
<path d="M159.343 4.1947L280.448 399.959L279.542 400.903L158.174 4.28424L159.343 4.1947Z" fill="#E6E6EC"/>
<path d="M160.121 4.13416L281.053 399.33L280.146 400.274L158.953 4.22451L160.121 4.13416Z" fill="#E6E6EC"/>
<path d="M160.899 4.07446L281.657 398.701L280.751 399.644L159.731 4.16441L160.899 4.07446Z" fill="#E7E7ED"/>
<path d="M161.678 4.0144L282.262 398.071L281.355 399.015L160.51 4.10472L161.678 4.0144Z" fill="#E7E7ED"/>
<path d="M162.458 3.95923L282.866 397.442L281.96 398.386L161.288 4.04464L162.458 3.95923Z" fill="#E8E8EE"/>
<path d="M282.564 397.757L283.47 396.813L163.238 3.90479L162.068 3.9868L282.564 397.757Z" fill="#E8E8EE"/>
<path d="M164.018 3.84924L284.072 396.177L283.168 397.128L162.847 3.93203L164.018 3.84924Z" fill="#E8E8EE"/>
<path d="M164.798 3.7948L284.674 395.539L283.772 396.495L163.628 3.87681L164.798 3.7948Z" fill="#E9E9EF"/>
<path d="M165.577 3.73999L285.276 394.903L284.374 395.858L164.408 3.822L165.577 3.73999Z" fill="#E9E9EF"/>
<path d="M166.357 3.68481L285.879 394.266L284.975 395.222L165.188 3.76757L166.357 3.68481Z" fill="#EAEAF0"/>
<path d="M167.138 3.63L286.48 393.629L285.577 394.585L165.968 3.71202L167.138 3.63Z" fill="#EAEAF0"/>
<path d="M167.918 3.57483L287.082 392.993L286.179 393.949L166.748 3.65762L167.918 3.57483Z" fill="#EBEBF1"/>
<path d="M168.698 3.52039L287.684 392.356L286.781 393.312L167.528 3.6028L168.698 3.52039Z" fill="#EBEBF1"/>
<path d="M169.477 3.46558L288.285 391.716L287.383 392.674L168.308 3.54759L169.477 3.46558Z" fill="#ECECF2"/>
<path d="M170.26 3.41571L288.886 391.072C288.585 391.393 288.286 391.718 287.986 392.038L169.089 3.49281L170.26 3.41571Z" fill="#ECECF2"/>
<path d="M171.041 3.36621L289.485 390.427L288.585 391.394L169.869 3.44066L171.041 3.36621Z" fill="#EDEDF3"/>
<path d="M171.823 3.31628L290.085 389.783L289.184 390.75L170.651 3.39073L171.823 3.31628Z" fill="#EDEDF3"/>
<path d="M172.605 3.26605L290.685 389.14L289.784 390.106L171.433 3.34127L172.605 3.26605Z" fill="#EEEEF4"/>
<path d="M173.386 3.21655L291.284 388.496L290.384 389.462L172.213 3.29104L173.386 3.21655Z" fill="#EEEEF4"/>
<path d="M174.168 3.16736L291.884 387.851L290.985 388.817L172.996 3.24184L174.168 3.16736Z" fill="#EFEFF5"/>
<path d="M174.95 3.11713L292.484 387.207L291.584 388.174L173.778 3.19161L174.95 3.11713Z" fill="#EFEFF5"/>
<path d="M175.732 3.06726L293.082 386.556L292.183 387.53L174.559 3.14245L175.732 3.06726Z" fill="#F0F0F6"/>
<path d="M176.513 3.0177L293.679 385.905L292.782 386.882L175.34 3.09218L176.513 3.0177Z" fill="#F0F0F6"/>
<path d="M177.295 2.96826L294.276 385.253L293.38 386.231L176.122 3.04271L177.295 2.96826Z" fill="#F1F1F7"/>
<path d="M178.078 2.92438L294.874 384.601L293.978 385.578L176.904 2.99277L178.078 2.92438Z" fill="#F1F1F7"/>
<path d="M178.861 2.87939L295.471 383.95L294.575 384.927L177.686 2.94631L178.861 2.87939Z" fill="#F2F2F8"/>
<path d="M179.645 2.83484L296.069 383.298L295.172 384.276L178.47 2.90176L179.645 2.83484Z" fill="#F2F2F8"/>
<path d="M180.428 2.79059L296.666 382.646L295.77 383.624L179.253 2.85747L180.428 2.79059Z" fill="#F2F2F8"/>
<path d="M181.211 2.74554L297.263 381.992L296.367 382.973L180.036 2.81246L181.211 2.74554Z" fill="#F1F1F7"/>
<path d="M181.994 2.70099L297.857 381.333L296.965 382.32L180.819 2.76791L181.994 2.70099Z" fill="#F1F1F7"/>
<path d="M182.777 2.6568L298.452 380.674L297.561 381.662L181.602 2.72372L182.777 2.6568Z" fill="#F0F0F6"/>
<path d="M183.561 2.61182L299.048 380.014L298.156 381.003L182.386 2.67873L183.561 2.61182Z" fill="#F0F0F6"/>
<path d="M184.344 2.5672L299.643 379.354L298.75 380.344L183.169 2.63412L184.344 2.5672Z" fill="#EFEFF5"/>
<path d="M185.128 2.52417L300.238 378.696L299.345 379.684L183.952 2.58994L185.128 2.52417Z" fill="#EFEFF5"/>
<path d="M185.912 2.4845L300.833 378.036L299.941 379.024L184.735 2.54495L185.912 2.4845Z" fill="#EEEEF4"/>
<path d="M186.697 2.44519L301.428 377.377L300.536 378.365L185.519 2.5045L186.697 2.44519Z" fill="#EEEEF4"/>
<path d="M187.482 2.4054L302.022 376.711L301.131 377.706L186.305 2.46475L187.482 2.4054Z" fill="#EDEDF3"/>
<path d="M188.267 2.36652L302.615 376.043C302.318 376.376 302.022 376.712 301.725 377.044L187.09 2.42509L188.267 2.36652Z" fill="#EDEDF3"/>
<path d="M189.052 2.32684L303.207 375.377L302.318 376.378L187.875 2.38616L189.052 2.32684Z" fill="#ECECF2"/>
<path d="M189.837 2.28754L303.8 374.71L302.911 375.71L188.659 2.34685L189.837 2.28754Z" fill="#ECECF2"/>
<path d="M190.621 2.2486L304.393 374.043L303.504 375.043L189.444 2.30717L190.621 2.2486Z" fill="#EBEBF1"/>
<path d="M191.405 2.20892L304.986 373.375L304.096 374.376L190.229 2.2675L191.405 2.20892Z" fill="#EBEBF1"/>
<path d="M192.19 2.16919L305.578 372.708L304.689 373.709L191.014 2.22854L192.19 2.16919Z" fill="#EAEAF0"/>
<path d="M192.976 2.13141L306.171 372.039L305.281 373.043L191.799 2.18925L192.976 2.13141Z" fill="#EAEAF0"/>
<path d="M193.762 2.09778L306.761 371.365L305.874 372.375L192.583 2.14956L193.762 2.09778Z" fill="#E9E9EF"/>
<path d="M194.549 2.06335L307.35 370.69L306.465 371.703L193.369 2.11477L194.549 2.06335Z" fill="#E9E9EF"/>
<path d="M195.335 2.02942L307.942 370.015L307.056 371.028L194.156 2.08043L195.335 2.02942Z" fill="#E8E8EE"/>
<path d="M196.121 1.995L308.532 369.339L307.646 370.353L194.942 2.046L196.121 1.995Z" fill="#E8E8EE"/>
<path d="M196.908 1.96057L309.122 368.665L308.236 369.678L195.729 2.01158L196.908 1.96057Z" fill="#E8E8EE"/>
<path d="M197.695 1.92621L309.712 367.99L308.826 369.003L196.515 1.97799L197.695 1.92621Z" fill="#E7E7ED"/>
<path d="M198.481 1.89258L310.302 367.315L309.417 368.328L197.301 1.94359L198.481 1.89258Z" fill="#E7E7ED"/>
<path d="M199.267 1.85815L310.891 366.635L310.007 367.653L198.087 1.90957L199.267 1.85815Z" fill="#E6E6EC"/>
<path d="M200.053 1.82379L311.479 365.951C311.185 366.292 310.892 366.637 310.597 366.976L198.875 1.87521L200.053 1.82379Z" fill="#E6E6EC"/>
<path d="M200.84 1.79236L312.067 365.269L311.185 366.293L199.661 1.84075L200.84 1.79236Z" fill="#E5E5EB"/>
<path d="M201.629 1.76331L312.655 364.587L311.773 365.611L200.447 1.80715C200.841 1.7909 201.235 1.77842 201.629 1.76331Z" fill="#E5E5EB"/>
<path d="M202.417 1.73456L313.243 363.903L312.361 364.928L201.235 1.77804L202.417 1.73456Z" fill="#E4E4EA"/>
<path d="M203.204 1.70544L313.83 363.221L312.949 364.245L202.022 1.74892L203.204 1.70544Z" fill="#E4E4EA"/>
<path d="M203.993 1.67639L314.418 362.538L313.537 363.562L202.811 1.71987L203.993 1.67639Z" fill="#E3E3E9"/>
<path d="M204.781 1.64728L315.006 361.855C314.713 362.198 314.419 362.536 314.125 362.879L203.599 1.69076L204.781 1.64728Z" fill="#E3E3E9"/>
<path d="M205.569 1.61816L315.592 361.163L314.712 362.196L204.387 1.66161L205.569 1.61816Z" fill="#E2E2E8"/>
<path d="M206.357 1.58948L316.177 360.472L315.299 361.509L205.175 1.63259L206.357 1.58948Z" fill="#E2E2E8"/>
<path d="M207.145 1.56036L316.762 359.782L315.884 360.818L205.962 1.60421L207.145 1.56036Z" fill="#E1E1E7"/>
<path d="M207.933 1.53162L317.348 359.091L316.47 360.126L206.75 1.57506L207.933 1.53162Z" fill="#E1E1E7"/>
<path d="M208.722 1.50592L317.933 358.399L317.055 359.436L207.538 1.546L208.722 1.50592Z" fill="#E0E0E6"/>
<path d="M209.512 1.48212L318.519 357.708L317.641 358.745L208.327 1.51803L209.512 1.48212Z" fill="#E0E0E6"/>
<path d="M210.301 1.45868L319.104 357.017L318.226 358.054L209.116 1.49422L210.301 1.45868Z" fill="#DFDFE5"/>
<path d="M211.091 1.43488L319.688 356.323L318.811 357.363L209.906 1.47042L211.091 1.43488Z" fill="#DFDFE5"/>
<path d="M211.88 1.41101L320.271 355.623C319.979 355.972 319.69 356.325 319.397 356.671L210.696 1.44655L211.88 1.41101Z" fill="#DEDEE4"/>
<path d="M212.67 1.38721L320.854 354.925L319.98 355.973L211.485 1.42271L212.67 1.38721Z" fill="#DEDEE4"/>
<path d="M213.46 1.3634L321.438 354.225L320.563 355.273L212.275 1.39932L213.46 1.3634Z" fill="#DDDEE3"/>
<path d="M214.25 1.33997L322.02 353.525L321.146 354.575L213.064 1.37547L214.25 1.33997Z" fill="#DDDDE3"/>
<path d="M215.039 1.31616L322.603 352.827L321.728 353.875L213.854 1.35167L215.039 1.31616Z" fill="#DCDDE3"/>
<path d="M215.829 1.29236L323.186 352.127L322.312 353.175L214.644 1.32787L215.829 1.29236Z" fill="#DCDCE2"/>
<path d="M216.619 1.27313L323.768 351.428L322.895 352.476L215.433 1.30451L216.619 1.27313Z" fill="#DBDCE2"/>
<path d="M217.41 1.25464L324.35 350.721L323.477 351.777L216.224 1.28258L217.41 1.25464Z" fill="#DBDBE1"/>
<path d="M218.201 1.23608L324.929 350.014L324.059 351.075L217.015 1.26406L218.201 1.23608Z" fill="#DADBE1"/>
<path d="M218.993 1.2179L325.51 349.306L324.639 350.368L217.806 1.2455L218.993 1.2179Z" fill="#DADAE0"/>
<path d="M219.784 1.1994L326.09 348.599L325.22 349.66L218.597 1.2266L219.784 1.1994Z" fill="#D9DAE0"/>
<path d="M220.574 1.18091L326.671 347.891L325.8 348.952L219.388 1.20889L220.574 1.18091Z" fill="#D9D9DF"/>
<path d="M221.366 1.16235L327.252 347.183L326.38 348.245L220.18 1.18996L221.366 1.16235Z" fill="#D8D9DF"/>
<path d="M222.157 1.14343L327.831 346.475L326.961 347.537L220.971 1.17141L222.157 1.14343Z" fill="#D8D8DE"/>
<path d="M222.949 1.12494L328.412 345.766L327.541 346.83L221.762 1.15292L222.949 1.12494Z" fill="#D7D8DE"/>
<path d="M223.74 1.10681L328.989 345.05C328.699 345.406 328.412 345.766 328.121 346.122L222.553 1.13438L223.74 1.10681Z" fill="#D7D7DD"/>
<path d="M224.533 1.09357L329.567 344.334L328.699 345.409L223.344 1.11549L224.533 1.09357Z" fill="#D6D7DD"/>
<path d="M225.325 1.08032L330.145 343.617L329.278 344.692L224.137 1.10036L225.325 1.08032Z" fill="#D6D6DC"/>
<path d="M226.118 1.0675L330.722 342.902L329.856 343.976L224.93 1.08714L226.118 1.0675Z" fill="#D5D6DC"/>
<path d="M226.912 1.05389L331.3 342.185L330.433 343.26L225.722 1.07394L226.912 1.05389Z" fill="#D5D5DB"/>
<path d="M227.704 1.04065L331.878 341.47L331.011 342.544L226.515 1.06029L227.704 1.04065Z" fill="#D4D5DB"/>
<path d="M228.497 1.0274L332.455 340.753L331.588 341.828L227.307 1.04708L228.497 1.0274Z" fill="#D4D4DA"/>
<path d="M229.29 1.01379L333.031 340.032L332.166 341.111L228.101 1.0342L229.29 1.01379Z" fill="#D3D4DA"/>
<path d="M230.082 1.00098L333.606 339.308L332.744 340.394L228.893 1.02098L230.082 1.00098Z" fill="#D3D3D9"/>
<path d="M230.875 0.987732L334.182 338.583L333.319 339.669L229.686 1.0074L230.875 0.987732Z" fill="#D2D3D9"/>
<path d="M231.669 0.976074L334.757 337.858L333.894 338.945L230.479 0.994197L231.669 0.976074Z" fill="#D2D2D8"/>
<path d="M232.463 0.96814L335.331 337.134L334.469 338.221L231.271 0.980615L232.463 0.96814Z" fill="#D1D2D8"/>
<path d="M233.257 0.959778L335.906 336.409L335.044 337.495L232.065 0.971884L233.257 0.959778Z" fill="#D1D2D7"/>
<path d="M234.052 0.952271L336.482 335.684L335.62 336.77L232.86 0.963971L234.052 0.952271Z" fill="#D0D1D7"/>
<path d="M234.846 0.944336L337.057 334.959C336.771 335.323 336.482 335.683 336.195 336.046L233.655 0.956405L234.846 0.944336Z" fill="#D0D1D6"/>
<path d="M235.641 0.936768L337.629 334.225L336.77 335.322L234.449 0.948099L235.641 0.936768Z" fill="#CFD0D6"/>
<path d="M236.436 0.928467L338.202 333.492C337.915 333.858 337.63 334.228 337.343 334.592L235.244 0.940167L236.436 0.928467Z" fill="#CFD0D5"/>
<path d="M237.23 0.920044L338.774 332.759L337.916 333.859L236.038 0.932519L237.23 0.920044Z" fill="#CECFD5"/>
<path d="M238.024 0.912476L339.346 332.025L338.488 333.125L236.832 0.924213L238.024 0.912476Z" fill="#CECFD4"/>
<path d="M238.819 0.904541L339.919 331.292L339.061 332.392L237.627 0.916278L238.819 0.904541Z" fill="#CDCED4"/>
<path d="M239.615 0.899292L340.492 330.558L339.633 331.659L238.421 0.908741L239.615 0.899292Z" fill="#CDCED4"/>
<path d="M240.41 0.897095L341.064 329.824L340.205 330.925L239.216 0.901229L240.41 0.897095Z" fill="#CCCDD3"/>
<path d="M241.206 0.894043L341.635 329.087L340.778 330.191L240.012 0.898177L241.206 0.894043Z" fill="#CCCDD3"/>
<path d="M242.002 0.891724L342.205 328.345C341.92 328.715 341.636 329.089 341.351 329.458L240.808 0.895119L242.002 0.891724Z" fill="#CBCCD2"/>
<path d="M242.797 0.888672L342.774 327.602L341.92 328.716L241.603 0.892843L242.797 0.888672Z" fill="#CBCCD2"/>
<path d="M243.593 0.886108L343.344 326.86L342.49 327.974L242.4 0.889873L243.593 0.886108Z" fill="#CACBD1"/>
<path d="M244.39 0.883789L343.914 326.118L343.059 327.232L243.196 0.887591L244.39 0.883789Z" fill="#CACBD1"/>
<path d="M245.186 0.880737L344.483 325.376L343.629 326.49L243.992 0.884908L245.186 0.880737Z" fill="#C9CAD0"/>
<path d="M245.982 0.877747L345.053 324.634L344.198 325.747L244.788 0.881917L245.982 0.877747Z" fill="#C9CAD0"/>
<path d="M246.778 0.875488L345.623 323.892C345.339 324.265 345.053 324.632 344.768 325.005L245.584 0.879659L246.778 0.875488Z" fill="#C8C9CF"/>
<path d="M247.575 0.877386L346.191 323.141L345.338 324.262L246.381 0.876648L247.575 0.877386Z" fill="#C8C9CF"/>
<path d="M248.373 0.879714L346.758 322.389L345.907 323.516L247.177 0.876282L248.373 0.879714Z" fill="#C7C8CE"/>
<path d="M249.171 0.882305L347.324 321.638L346.474 322.766L247.974 0.87854L249.171 0.882305Z" fill="#C7C8CE"/>
<path d="M249.969 0.885359L347.891 320.887L347.04 322.014L248.772 0.881226L249.969 0.885359Z" fill="#C6C7CD"/>
<path d="M250.766 0.887591L348.458 320.136L347.608 321.263L249.57 0.883789L250.766 0.887591Z" fill="#C6C7CD"/>
<path d="M251.564 0.890645L349.026 319.384L348.175 320.511L250.368 0.886475L251.564 0.890645Z" fill="#C5C7CC"/>
<path d="M252.362 0.893599L349.592 318.633L348.742 319.76L251.166 0.889465L252.362 0.893599Z" fill="#C5C6CC"/>
<path d="M253.16 0.895894L350.159 317.878L349.308 319.009L251.963 0.891724L253.16 0.895894Z" fill="#C4C6CB"/>
<path d="M253.957 0.898946L350.722 317.118L349.875 318.258L252.76 0.894775L253.957 0.898946Z" fill="#C4C5CB"/>
<path d="M254.755 0.90237L351.287 316.358L350.44 317.499L253.558 0.897461L254.755 0.90237Z" fill="#C3C5CA"/>
<path d="M255.554 0.909903L351.85 315.598L351.004 316.738L254.356 0.900085L255.554 0.909903Z" fill="#C3C4CA"/>
<path d="M256.353 0.917807L352.415 314.837L351.569 315.978L255.155 0.905701L256.353 0.917807Z" fill="#C2C4C9"/>
<path d="M257.153 0.926169L352.979 314.077L352.133 315.218L255.954 0.914062L257.153 0.926169Z" fill="#C2C3C9"/>
<path d="M257.952 0.934042L353.543 313.316L352.697 314.457L256.753 0.921936L257.952 0.934042Z" fill="#C1C3C8"/>
<path d="M258.751 0.941629L354.107 312.556L353.261 313.697L257.552 0.930298L258.751 0.941629Z" fill="#C1C2C8"/>
<path d="M259.55 0.949936L354.669 311.788L353.825 312.936L258.352 0.937866L259.55 0.949936Z" fill="#C0C2C7"/>
<path d="M260.35 0.95787L355.231 311.018C354.95 311.402 354.67 311.791 354.389 312.173L259.151 0.945801L260.35 0.95787Z" fill="#C0C1C7"/>
<path d="M261.15 0.965433L355.792 310.248L354.95 311.403L259.951 0.954102L261.15 0.965433Z" fill="#BFC1C6"/>
<path d="M261.949 0.973736L356.353 309.478L355.511 310.633L260.75 0.962036L261.949 0.973736Z" fill="#BFC0C6"/>
<path d="M262.749 0.984331L356.914 308.709L356.072 309.864L261.549 0.969604L262.749 0.984331Z" fill="#BEC0C6"/>
<path d="M263.549 0.997541L357.476 307.939L356.634 309.094L262.348 0.977905L263.549 0.997541Z" fill="#BEBFC5"/>
<path d="M264.35 1.01076L358.037 307.17L357.196 308.323L263.149 0.990723L264.35 1.01076Z" fill="#BDBFC5"/>
<path d="M265.152 1.0244L358.598 306.397C358.319 306.785 358.037 307.168 357.757 307.554L263.95 1.00403L265.152 1.0244Z" fill="#BDBEC4"/>
<path d="M265.953 1.03762L359.156 305.618L358.318 306.784L264.752 1.01721L265.953 1.03762Z" fill="#BCBEC4"/>
<path d="M266.754 1.05129L359.715 304.84L358.877 306.009L265.552 1.03125L266.754 1.05129Z" fill="#BCBDC3"/>
<path d="M267.555 1.06447L360.273 304.06L359.435 305.229L266.353 1.0448L267.555 1.06447Z" fill="#BBBDC3"/>
<path d="M268.355 1.07768L360.831 303.281L359.994 304.449L267.154 1.05804L268.355 1.07768Z" fill="#BBBCC2"/>
<path d="M269.156 1.09133L361.39 302.501L360.553 303.67L267.955 1.07166L269.156 1.09133Z" fill="#BABCC2"/>
<path d="M269.957 1.10454L361.948 301.722L361.111 302.891L268.757 1.0849L269.957 1.10454Z" fill="#BABCC1"/>
<path d="M270.76 1.12189L362.507 300.942C362.228 301.334 361.948 301.721 361.669 302.112L269.557 1.09808L270.76 1.12189Z" fill="#B9BBC1"/>
<path d="M271.562 1.1412L363.063 300.158L362.227 301.332L270.358 1.11285L271.562 1.1412Z" fill="#B9BBC0"/>
<path d="M272.365 1.15971L363.618 299.369C363.34 299.762 363.064 300.16 362.785 300.553L271.161 1.13214L272.365 1.15971Z" fill="#B8BAC0"/>
<path d="M273.167 1.17858L364.174 298.579L363.341 299.763L271.963 1.15063L273.167 1.17858Z" fill="#B8BABF"/>
<path d="M273.969 1.19754L364.73 297.79L363.896 298.974L272.767 1.16919L273.969 1.19754Z" fill="#B7B9BF"/>
<path d="M274.773 1.21642L365.285 297.002L364.451 298.185L273.569 1.18848L274.773 1.21642Z" fill="#B7B9BE"/>
<path d="M275.576 1.23489L365.841 296.213L365.007 297.397L274.371 1.20691L275.576 1.23489Z" fill="#B6B8BE"/>
<path d="M276.378 1.25418L366.396 295.424L365.562 296.608L275.174 1.22546L276.378 1.25418Z" fill="#B6B8BD"/>
<path d="M277.18 1.27273L366.951 294.634C366.674 295.031 366.395 295.422 366.118 295.818L275.977 1.24475L277.18 1.27273Z" fill="#B5B7BD"/>
<path d="M277.983 1.29202L367.504 293.835L366.674 295.029L276.78 1.26331L277.983 1.29202Z" fill="#B5B7BC"/>
<path d="M278.788 1.3162L368.056 293.036L367.227 294.235L277.583 1.2818L278.788 1.3162Z" fill="#B4B6BC"/>
<path d="M279.592 1.33999L368.608 292.238L367.78 293.437L278.386 1.30408L279.592 1.33999Z" fill="#B4B6BB"/>
<path d="M280.396 1.36455L369.161 291.439L368.332 292.638L279.189 1.32867L280.396 1.36455Z" fill="#B3B5BB"/>
<path d="M281.2 1.38839L369.713 290.64L368.885 291.838L279.994 1.35248L281.2 1.38839Z" fill="#B3B5BA"/>
<path d="M282.004 1.41293L370.265 289.842L369.437 291.039L280.799 1.37665L282.004 1.41293Z" fill="#B2B4BA"/>
<path d="M282.809 1.43714L370.818 289.043C370.543 289.444 370.265 289.84 369.99 290.241L281.603 1.40045L282.809 1.43714Z" fill="#B2B4B9"/>
<path d="M283.614 1.46096L371.369 288.238L370.542 289.442L282.407 1.42505L283.614 1.46096Z" fill="#B1B3B9"/>
<path d="M284.418 1.4855L371.918 287.43C371.643 287.833 371.37 288.241 371.094 288.643L283.211 1.44885L284.418 1.4855Z" fill="#B1B3B8"/>
<path d="M285.221 1.50926L372.467 286.621C372.192 287.025 371.919 287.432 371.643 287.834L284.014 1.47339L285.221 1.50926Z" fill="#B0B2B8"/>
<path d="M286.027 1.53616L373.016 285.812L372.193 287.025L284.819 1.49725L286.027 1.53616Z" fill="#B0B2B7"/>
<path d="M286.832 1.56564L373.566 285.003L372.742 286.216L285.624 1.52142L286.832 1.56564Z" fill="#AFB1B7"/>
<path d="M287.639 1.59549L374.115 284.194L373.292 285.407L286.43 1.55127L287.639 1.59549Z" fill="#AFB1B7"/>
<path d="M288.445 1.62497L374.665 283.385L373.84 284.599L287.236 1.58075L288.445 1.62497Z" fill="#AEB0B6"/>
<path d="M289.251 1.65481L375.214 282.577C374.94 282.983 374.664 283.384 374.39 283.79L288.041 1.6106L289.251 1.65481Z" fill="#AEB0B6"/>
<path d="M290.056 1.68433L375.76 281.758L374.939 282.98L288.847 1.64008L290.056 1.68433Z" fill="#ADB0B5"/>
<path d="M290.862 1.71414L376.307 280.938L375.487 282.166L289.653 1.66992L290.862 1.71414Z" fill="#ADAFB5"/>
<path d="M291.669 1.74368L376.853 280.119L376.033 281.348L290.46 1.69946L291.669 1.74368Z" fill="#ACAFB4"/>
<path d="M292.475 1.77353L377.4 279.3L376.58 280.529L291.266 1.72931L292.475 1.77353Z" fill="#ACAEB4"/>
<path d="M293.281 1.80301L377.945 278.481L377.126 279.71L292.071 1.75879L293.281 1.80301Z" fill="#ABAEB3"/>
<path d="M294.087 1.83739L378.491 277.663L377.673 278.891L292.877 1.78864L294.087 1.83739Z" fill="#ABADB3"/>
<path d="M294.894 1.8729L379.037 276.844L378.219 278.071L293.684 1.82001L294.894 1.8729Z" fill="#AAADB2"/>
<path d="M295.702 1.90768L379.583 276.02L378.765 277.253L294.491 1.85553L295.702 1.90768Z" fill="#AAACB2"/>
<path d="M296.51 1.94319L380.126 275.19C379.854 275.604 379.583 276.022 379.311 276.434L295.299 1.89026L296.51 1.94319Z" fill="#A9ACB1"/>
<path d="M297.318 1.97798L380.669 274.361L379.854 275.605L296.107 1.92505L297.318 1.97798Z" fill="#A9ABB1"/>
<path d="M298.125 2.01309L381.212 273.531L380.397 274.776L296.914 1.96057L298.125 2.01309Z" fill="#A8ABB0"/>
<path d="M298.932 2.04829L381.754 272.702L380.94 273.946L297.721 1.99536L298.932 2.04829Z" fill="#A8AAB0"/>
<path d="M299.741 2.08341L382.298 271.873L381.483 273.116L298.529 2.03088L299.741 2.08341Z" fill="#A7AAAF"/>
<path d="M300.548 2.11897L382.841 271.043L382.027 272.287L299.337 2.06604L300.548 2.11897Z" fill="#A7A9AF"/>
<path d="M301.357 2.15527L383.384 270.213C383.114 270.63 382.84 271.042 382.569 271.458L300.145 2.1012L301.357 2.15527Z" fill="#A6A9AE"/>
<path d="M302.166 2.19604L383.924 269.374L383.112 270.629L300.952 2.13635L302.166 2.19604Z" fill="#A6A8AE"/>
<path d="M302.975 2.23612L384.464 268.534L383.654 269.795L301.761 2.17566L302.975 2.23612Z" fill="#A5A8AD"/>
<path d="M303.784 2.27693L385.004 267.693L384.194 268.954L302.571 2.21643L303.784 2.27693Z" fill="#A5A7AD"/>
<path d="M304.593 2.31776L385.544 266.854L384.734 268.114L303.38 2.25653L304.593 2.31776Z" fill="#A4A7AC"/>
<path d="M305.403 2.35819L386.083 266.014L385.273 267.274L304.19 2.29736L305.403 2.35819Z" fill="#A4A6AC"/>
<path d="M306.213 2.39902L386.623 265.174L385.814 266.435L304.999 2.3382L306.213 2.39902Z" fill="#A3A6AB"/>
<path d="M307.022 2.43983L387.163 264.334L386.353 265.595L305.807 2.3786L307.022 2.43983Z" fill="#A3A5AB"/>
<path d="M307.83 2.48067L387.701 263.49L386.893 264.754L306.617 2.41943L307.83 2.48067Z" fill="#A2A5AA"/>
<path d="M308.64 2.52107L388.238 262.639C387.969 263.063 387.702 263.491 387.433 263.914L307.426 2.46021L308.64 2.52107Z" fill="#A2A5AA"/>
<path d="M309.451 2.56536L388.775 261.788L387.97 263.064L308.235 2.50073L309.451 2.56536Z" fill="#A1A4A9"/>
<path d="M310.262 2.61179L389.311 260.937L388.506 262.213L309.045 2.54266L310.262 2.61179Z" fill="#A1A4A9"/>
<path d="M311.073 2.65797L389.847 260.087L389.042 261.363L309.855 2.58881L311.073 2.65797Z" fill="#A0A3A9"/>
<path d="M311.884 2.70369L390.384 259.236L389.579 260.512L310.667 2.63452L311.884 2.70369Z" fill="#A0A3A8"/>
<path d="M312.694 2.75054L390.92 258.386L390.116 259.661L311.478 2.68097L312.694 2.75054Z" fill="#9FA2A8"/>
<path d="M313.505 2.79628L391.457 257.534C391.19 257.961 390.92 258.383 390.652 258.81L312.29 2.72711L313.505 2.79628Z" fill="#9FA2A7"/>
<path d="M314.317 2.84236L391.99 256.672L391.188 257.959L313.1 2.77319L314.317 2.84236Z" fill="#9EA1A7"/>
<path d="M315.127 2.88887L392.523 255.811C392.256 256.24 391.991 256.675 391.723 257.103L313.911 2.8197L315.127 2.88887Z" fill="#9EA1A6"/>
<path d="M315.939 2.93461L393.056 254.949L392.257 256.241L314.722 2.86548L315.939 2.93461Z" fill="#9DA0A6"/>
<path d="M316.749 2.98177L393.589 254.087L392.79 255.379L315.533 2.9115L316.749 2.98177Z" fill="#9DA0A5"/>
<path d="M317.563 3.0336L394.123 253.225L393.323 254.517L316.345 2.95801L317.563 3.0336Z" fill="#9C9FA5"/>
<path d="M318.376 3.08541L394.656 252.363L393.856 253.656L317.156 3.00793L318.376 3.08541Z" fill="#9C9FA4"/>
<path d="M319.189 3.13717L395.189 251.5C394.924 251.934 394.656 252.362 394.389 252.794L317.969 3.05969L319.189 3.13717Z" fill="#9B9EA4"/>
<path d="M320.001 3.18897L395.72 250.633L394.922 251.932L318.781 3.11072L320.001 3.18897Z" fill="#9B9EA3"/>
<path d="M320.813 3.24072L396.249 249.76C395.984 250.195 395.721 250.635 395.455 251.07L319.594 3.16248L320.813 3.24072Z" fill="#9A9DA3"/>
<path d="M321.625 3.29208L396.78 248.887L395.985 250.196L320.407 3.21423L321.625 3.29208Z" fill="#9A9DA2"/>
<path d="M322.438 3.34353L397.309 248.014L396.515 249.323L321.22 3.26605L322.438 3.34353Z" fill="#999CA2"/>
<path d="M323.251 3.39534L397.84 247.141L397.044 248.451L322.032 3.31787L323.251 3.39534Z" fill="#999CA1"/>
<path d="M324.064 3.4471L398.369 246.268L397.574 247.578L322.845 3.36963L324.064 3.4471Z" fill="#989BA1"/>
<path d="M324.878 3.50262L398.898 245.395C398.634 245.834 398.368 246.268 398.103 246.705L323.657 3.42139L324.878 3.50262Z" fill="#989BA0"/>
<path d="M325.692 3.55972L399.428 244.521C399.164 244.96 398.898 245.394 398.634 245.832L324.471 3.47394L325.692 3.55972Z" fill="#979AA0"/>
<path d="M326.506 3.61756L399.954 243.636L399.163 244.958L325.285 3.53137L326.506 3.61756Z" fill="#979A9F"/>
<path d="M327.322 3.67422L400.48 242.751C400.217 243.193 399.956 243.638 399.691 244.079L326.1 3.58844L327.322 3.67422Z" fill="#969A9F"/>
<path d="M328.136 3.73206L401.007 241.868L400.217 243.195L326.915 3.64587L328.136 3.73206Z" fill="#96999E"/>
<path d="M328.95 3.78876L401.533 240.983L400.743 242.31L327.728 3.70294L328.95 3.78876Z" fill="#95999E"/>
<path d="M329.764 3.84656L402.059 240.099L401.27 241.425L328.543 3.76038L329.764 3.84656Z" fill="#95989D"/>
<path d="M330.578 3.90369L402.585 239.214L401.796 240.541L329.357 3.8175L330.578 3.90369Z" fill="#94989D"/>
<path d="M331.393 3.96109L403.112 238.33C402.85 238.774 402.585 239.212 402.322 239.656L330.171 3.87494L331.393 3.96109Z" fill="#94979C"/>
<path d="M332.208 4.0193L403.635 237.436L402.848 238.772L330.986 3.93201L332.208 4.0193Z" fill="#93979C"/>
<path d="M333.024 4.08205L404.158 236.541C403.895 236.988 403.635 237.439 403.373 237.885L331.8 3.98944L333.024 4.08205Z" fill="#93969B"/>
<path d="M333.84 4.14478L404.68 235.645L403.897 236.989L332.615 4.05066L333.84 4.14478Z" fill="#92969B"/>
<path d="M334.656 4.20752L405.203 234.75L404.419 236.092L333.432 4.1134L334.656 4.20752Z" fill="#92959A"/>
<path d="M335.471 4.27027L405.725 233.853L404.942 235.197L334.248 4.17615L335.471 4.27027Z" fill="#91959A"/>
<path d="M336.288 4.33381L406.248 232.957L405.464 234.301L335.064 4.23895L336.288 4.33381Z" fill="#91949A"/>
<path d="M337.104 4.39649L406.771 232.06C406.51 232.511 406.247 232.956 405.987 233.405L335.88 4.30237L337.104 4.39649Z" fill="#909499"/>
<path d="M337.921 4.45966L407.292 231.161L406.509 232.509L336.696 4.36517L337.921 4.45966Z" fill="#909399"/>
<path d="M338.736 4.52234L407.811 230.253C407.551 230.706 407.293 231.161 407.032 231.613L337.512 4.42786L338.736 4.52234Z" fill="#8F9398"/>
<path d="M339.552 4.58509L408.33 229.345C408.07 229.798 407.813 230.255 407.552 230.707L338.328 4.49097L339.552 4.58509Z" fill="#8F9298"/>
<path d="M340.37 4.65196L408.849 228.437L408.071 229.799L339.144 4.55371L340.37 4.65196Z" fill="#8E9297"/>
<path d="M341.188 4.72041L409.369 227.529L408.59 228.891L339.961 4.61761L341.188 4.72041Z" fill="#8E9197"/>
<path d="M342.006 4.78919L409.888 226.621L409.109 227.983L340.779 4.6864L342.006 4.78919Z" fill="#8D9196"/>
<path d="M342.823 4.85759L410.406 225.713C410.148 226.169 409.887 226.621 409.628 227.075L341.597 4.75476L342.823 4.85759Z" fill="#8D9096"/>
<path d="M343.641 4.92634L410.925 224.806C410.667 225.261 410.406 225.712 410.147 226.167L342.414 4.82355L343.641 4.92634Z" fill="#8C9095"/>
<path d="M344.459 4.99517L411.44 223.885L410.666 225.258L343.232 4.89197L344.459 4.99517Z" fill="#8C8F95"/>
<path d="M345.278 5.06361L411.956 222.964C411.698 223.424 411.442 223.887 411.183 224.345L344.05 4.96082L345.278 5.06361Z" fill="#8B8F94"/>
<path d="M346.095 5.13234L412.471 222.045L411.698 223.425L344.868 5.02917L346.095 5.13234Z" fill="#8B8F94"/>
<path d="M346.912 5.20075L412.986 221.125L412.214 222.504L345.686 5.09796L346.912 5.20075Z" fill="#8A8E93"/>
<path d="M347.73 5.27069L413.501 220.205L412.729 221.584L346.504 5.16638L347.73 5.27069Z" fill="#8A8E93"/>
<path d="M348.55 5.34516L414.017 219.285L413.244 220.664L347.322 5.23517L348.55 5.34516Z" fill="#898D92"/>
<path d="M349.37 5.41961L414.533 218.365C414.276 218.827 414.017 219.283 413.76 219.745L348.141 5.30774L349.37 5.41961Z" fill="#898D92"/>
<path d="M350.19 5.4933L415.045 217.436L414.275 218.825L348.96 5.3822L350.19 5.4933Z" fill="#888C91"/>
<path d="M351.009 5.5678L415.557 216.504C415.3 216.97 415.047 217.439 414.79 217.903L349.78 5.45667L351.009 5.5678Z" fill="#888C91"/>
<path d="M351.829 5.64227L416.068 215.572L415.301 216.971L350.599 5.53076L351.829 5.64227Z" fill="#878B90"/>
<path d="M352.648 5.71599L416.58 214.639L415.813 216.037L351.419 5.60522L352.648 5.71599Z" fill="#878B90"/>
<path d="M353.468 5.79042L417.091 213.706L416.325 215.105L352.239 5.67969L353.468 5.79042Z" fill="#868A8F"/>
<path d="M354.288 5.8648L417.603 212.773L416.835 214.173L353.059 5.7533L354.288 5.8648Z" fill="#868A8F"/>
<path d="M355.107 5.93892L418.114 211.841L417.347 213.24L353.878 5.82782L355.107 5.93892Z" fill="#85898E"/>
<path d="M355.928 6.0179L418.625 210.905L417.858 212.308L354.697 5.90149L355.928 6.0179Z" fill="#85898E"/>
<path d="M356.749 6.09771L419.133 209.959C418.878 210.43 418.626 210.905 418.371 211.375L355.518 5.97791L356.749 6.09771Z" fill="#84888D"/>
<path d="M357.571 6.17779L419.64 209.014C419.386 209.485 419.134 209.961 418.879 210.431L356.34 6.05798L357.571 6.17779Z" fill="#84888D"/>
<path d="M358.393 6.25754L420.148 208.068C419.894 208.541 419.641 209.016 419.386 209.487L357.16 6.1377L358.393 6.25754Z" fill="#83878C"/>
<path d="M359.213 6.33764L420.655 207.124L419.894 208.542L357.982 6.21783L359.213 6.33764Z" fill="#83878C"/>
<path d="M360.035 6.41742L421.163 206.178L420.401 207.596L358.803 6.29761L360.035 6.41742Z" fill="#82868C"/>
<path d="M360.856 6.49755L421.67 205.233C421.418 205.707 421.162 206.177 420.909 206.65L359.624 6.37775L360.856 6.49755Z" fill="#82868B"/>
<path d="M361.677 6.5773L422.177 204.288C421.925 204.762 421.67 205.232 421.416 205.705L360.446 6.45746L361.677 6.5773Z" fill="#81858B"/>
<path d="M362.499 6.65741L422.682 203.329L421.925 204.76L361.267 6.53723L362.499 6.65741Z" fill="#81858A"/>
<path d="M363.321 6.74014L423.185 202.371C422.932 202.849 422.683 203.331 422.43 203.808L362.088 6.61731L363.321 6.74014Z" fill="#80848A"/>
<path d="M364.144 6.82556L423.689 201.413L422.933 202.85L362.909 6.69708L364.144 6.82556Z" fill="#808489"/>
<path d="M364.967 6.91101L424.192 200.455L423.437 201.892L363.732 6.78253L364.967 6.91101Z" fill="#7F8389"/>
<path d="M365.79 6.9972L424.696 199.497L423.941 200.934L364.555 6.86871L365.79 6.9972Z" fill="#7F8388"/>
<path d="M366.613 7.08258L425.2 198.538L424.445 199.975L365.379 6.9541L366.613 7.08258Z" fill="#7E8388"/>
<path d="M367.437 7.16876L425.704 197.58C425.453 198.061 425.199 198.537 424.948 199.017L366.202 7.04028L367.437 7.16876Z" fill="#7E8287"/>
<path d="M368.26 7.25421L426.204 196.611L425.451 198.06L367.025 7.12573L368.26 7.25421Z" fill="#7D8287"/>
<path d="M369.083 7.34038L426.703 195.64C426.453 196.125 426.206 196.614 425.954 197.097L367.848 7.21112L369.083 7.34038Z" fill="#7D8186"/>
<path d="M369.905 7.42578L427.203 194.669L426.454 196.126L368.671 7.2973L369.905 7.42578Z" fill="#7C8186"/>
<path d="M370.729 7.51195L427.703 193.697L426.953 195.154L369.494 7.38269L370.729 7.51195Z" fill="#7C8085"/>
<path d="M371.554 7.60378L428.202 192.726L427.453 194.183L370.317 7.46887L371.554 7.60378Z" fill="#7B8085"/>
<path d="M372.379 7.69493L428.702 191.754L427.952 193.212L371.142 7.55774L372.379 7.69493Z" fill="#7B7F84"/>
<path d="M373.204 7.78636L429.202 190.783C428.953 191.271 428.701 191.753 428.452 192.24L371.966 7.64917L373.204 7.78636Z" fill="#7A7F84"/>
<path d="M374.028 7.87743L429.699 189.805L428.952 191.269L372.791 7.74023L374.028 7.87743Z" fill="#7A7E83"/>
<path d="M374.853 7.96969L430.194 188.82C429.946 189.311 429.7 189.806 429.451 190.296L373.616 7.83209L374.853 7.96969Z" fill="#797E83"/>
<path d="M375.677 8.06081L430.69 187.835C430.441 188.326 430.196 188.821 429.947 189.311L374.441 7.92358L375.677 8.06081Z" fill="#797D82"/>
<path d="M376.503 8.15221L431.185 186.849L430.442 188.326L375.266 8.01501L376.503 8.15221Z" fill="#787D82"/>
<path d="M377.328 8.24333L431.681 185.865L430.938 187.343L376.09 8.10614L377.328 8.24333Z" fill="#787C81"/>
<path d="M378.152 8.33519L432.176 184.88L431.433 186.358L376.915 8.198L378.152 8.33519Z" fill="#777C81"/>
<path d="M378.978 8.43079L432.672 183.895C432.425 184.39 432.175 184.879 431.928 185.372L377.74 8.28943L378.978 8.43079Z" fill="#777B80"/>
<path d="M379.805 8.52831L433.166 182.905L432.425 184.387L378.566 8.38245L379.805 8.52831Z" fill="#767B80"/>
<path d="M380.631 8.62546L433.657 181.906C433.41 182.404 433.167 182.906 432.92 183.402L379.392 8.47955L380.631 8.62546Z" fill="#767A7F"/>
<path d="M381.459 8.7233L434.149 180.907C433.903 181.406 433.658 181.908 433.411 182.405L380.219 8.57703L381.459 8.7233Z" fill="#757A7F"/>
<path d="M382.285 8.82047L434.639 179.908L433.902 181.407L381.045 8.67419L382.285 8.82047Z" fill="#75797E"/>
<path d="M383.112 8.91757L435.13 178.91L434.394 180.408L381.872 8.7713L383.112 8.91757Z" fill="#74797E"/>
<path d="M383.938 9.0151L435.622 177.911L434.885 179.409L382.699 8.8692L383.938 9.0151Z" fill="#74787D"/>
<path d="M384.765 9.11217L436.113 176.912C435.869 177.413 435.621 177.91 435.376 178.41L383.526 8.96631L384.765 9.11217Z" fill="#73787D"/>
<path d="M385.592 9.20938L436.604 175.91C436.36 176.412 436.112 176.91 435.868 177.411L384.352 9.06348L385.592 9.20938Z" fill="#74787D"/>
<path d="M386.419 9.30957L437.09 174.897C436.846 175.402 436.604 175.909 436.359 176.413L385.178 9.16101L386.419 9.30957Z" fill="#74797E"/>
<path d="M387.248 9.41233L437.577 173.885C437.333 174.39 437.092 174.899 436.847 175.404L386.005 9.25812L387.248 9.41233Z" fill="#75797E"/>
<path d="M388.076 9.51588L438.064 172.871L437.334 174.391L386.833 9.36127L388.076 9.51588Z" fill="#757A7F"/>
<path d="M388.904 9.61869L438.551 171.859L437.821 173.377L387.662 9.46411L388.904 9.61869Z" fill="#767A7F"/>
<path d="M389.733 9.72147L439.038 170.845L438.308 172.366L388.49 9.56689L389.733 9.72147Z" fill="#767B80"/>
<path d="M390.562 9.82505L439.525 169.833L438.794 171.352L389.319 9.67047L390.562 9.82505Z" fill="#777B80"/>
<path d="M391.39 9.9282L440.011 168.819C439.769 169.328 439.524 169.832 439.281 170.34L390.147 9.77325L391.39 9.9282Z" fill="#777C81"/>
<path d="M392.218 10.031L440.494 167.792L439.768 169.326L390.975 9.87646L392.218 10.031Z" fill="#787C81"/>
<path d="M393.046 10.1346L440.976 166.764C440.734 167.276 440.495 167.793 440.252 168.305L391.804 9.97998L393.046 10.1346Z" fill="#787D82"/>
<path d="M393.875 10.2381L441.458 165.736L440.735 167.277L392.633 10.0828L393.875 10.2381Z" fill="#797D82"/>
<path d="M394.706 10.3474L441.941 164.709L441.217 166.25L393.461 10.1856L394.706 10.3474Z" fill="#797E83"/>
<path d="M395.536 10.4566L442.424 163.682L441.7 165.223L394.29 10.2926C394.706 10.3455 395.121 10.4033 395.536 10.4566Z" fill="#7A7E83"/>
<path d="M396.366 10.5654L442.906 162.654L442.182 164.195L395.121 10.4022L396.366 10.5654Z" fill="#7A7F84"/>
<path d="M397.196 10.6746L443.388 161.627C443.149 162.143 442.905 162.653 442.664 163.167L395.95 10.5106L397.196 10.6746Z" fill="#7B7F84"/>
<path d="M398.027 10.7835L443.867 160.584L443.148 162.14L396.782 10.6202L398.027 10.7835Z" fill="#7B8085"/>
<path d="M398.857 10.8928L444.344 159.542C444.105 160.062 443.868 160.586 443.627 161.105L397.611 10.7288L398.857 10.8928Z" fill="#7C8085"/>
<path d="M399.687 11.0016L444.822 158.5L444.105 160.063L398.442 10.8383L399.687 11.0016Z" fill="#7C8186"/>
<path d="M400.517 11.1108L445.3 157.458L444.584 159.021L399.271 10.9476L400.517 11.1108Z" fill="#7D8186"/>
<path d="M401.347 11.2196L445.778 156.416L445.062 157.978L400.102 11.0564L401.347 11.2196Z" fill="#7D8287"/>
<path d="M402.179 11.3342L446.256 155.373L445.539 156.936L400.933 11.1656L402.179 11.3342Z" fill="#7E8287"/>
<path d="M403.011 11.4494L446.734 154.331C446.497 154.855 446.255 155.372 446.017 155.894L401.763 11.2767L403.011 11.4494Z" fill="#7E8388"/>
<path d="M403.844 11.5644L447.208 153.274L446.495 154.853L402.595 11.3917L403.844 11.5644Z" fill="#7F8388"/>
<path d="M404.675 11.6789L447.681 152.217C447.444 152.745 447.209 153.277 446.971 153.804L403.427 11.507L404.675 11.6789Z" fill="#7F8389"/>
<path d="M405.507 11.7942L448.154 151.16L447.444 152.746L404.259 11.6215L405.507 11.7942Z" fill="#808489"/>
<path d="M406.34 11.9094L448.627 150.103L447.918 151.689L405.092 11.7367L406.34 11.9094Z" fill="#80848A"/>
<path d="M407.171 12.0243L449.101 149.046L448.391 150.631L405.924 11.8516L407.171 12.0243Z" fill="#81858A"/>
<path d="M408.004 12.1397L449.575 147.987C449.339 148.518 449.1 149.045 448.864 149.574L406.756 11.9669L408.004 12.1397Z" fill="#81858B"/>
<path d="M408.836 12.2541L450.048 146.931C449.813 147.461 449.574 147.987 449.338 148.517L407.587 12.0822L408.836 12.2541Z" fill="#82868B"/>
<path d="M409.669 12.3735L450.516 145.859L449.811 147.46L408.419 12.1967L409.669 12.3735Z" fill="#82868C"/>
<path d="M410.503 12.4945L450.985 144.786C450.75 145.321 450.518 145.861 450.282 146.395L409.252 12.3131L410.503 12.4945Z" fill="#83878C"/>
<path d="M411.337 12.6147L451.454 143.713C451.219 144.249 450.986 144.788 450.751 145.322L410.086 12.4341L411.337 12.6147Z" fill="#83878C"/>
<path d="M412.17 12.7356L451.922 142.639L451.219 144.249L410.92 12.5549L412.17 12.7356Z" fill="#84888D"/>
<path d="M413.004 12.8566L452.39 141.567L451.688 143.176L411.754 12.676L413.004 12.8566Z" fill="#84888D"/>
<path d="M413.838 12.9776L452.858 140.494L452.156 142.104L412.587 12.7961L413.838 12.9776Z" fill="#85898E"/>
<path d="M414.672 13.0985L453.327 139.421C453.095 139.959 452.858 140.492 452.625 141.03L413.421 12.9171L414.672 13.0985Z" fill="#85898E"/>
<path d="M415.505 13.2194L453.791 138.334L453.094 139.957L414.256 13.038L415.505 13.2194Z" fill="#868A8F"/>
<path d="M416.34 13.3403L454.255 137.243C454.022 137.787 453.793 138.334 453.56 138.877L415.089 13.1589L416.34 13.3403Z" fill="#868A8F"/>
<path d="M417.175 13.4643L454.719 136.155L454.023 137.788L415.923 13.2799L417.175 13.4643Z" fill="#878B90"/>
<path d="M418.011 13.591L455.182 135.065L454.487 136.699L416.756 13.4009L418.011 13.591Z" fill="#878B90"/>
<path d="M418.846 13.718L455.646 133.976L454.95 135.611L417.592 13.5278L418.846 13.718Z" fill="#888C91"/>
<path d="M419.681 13.8453L456.109 132.889C455.879 133.434 455.645 133.976 455.414 134.521L418.428 13.6545L419.681 13.8453Z" fill="#888C91"/>
<path d="M420.518 13.9719L456.573 131.799C456.343 132.346 456.109 132.886 455.878 133.432L419.264 13.7818L420.518 13.9719Z" fill="#898D92"/>
<path d="M421.353 14.0993L457.032 130.693L456.341 132.344L420.099 13.9084L421.353 14.0993Z" fill="#898D92"/>
<path d="M422.189 14.2263L457.49 129.588C457.26 130.14 457.033 130.696 456.802 131.247L420.935 14.0354L422.189 14.2263Z" fill="#8A8E93"/>
<path d="M423.025 14.3529L457.949 128.483C457.72 129.035 457.491 129.59 457.261 130.141L421.771 14.1628L423.025 14.3529Z" fill="#8A8E93"/>
<path d="M423.86 14.4803L458.408 127.379L457.72 129.036L422.606 14.2894L423.86 14.4803Z" fill="#8B8F94"/>
<path d="M424.697 14.6088L458.866 126.273L458.179 127.93L423.442 14.4164L424.697 14.6088Z" fill="#8B8F94"/>
<path d="M425.534 14.7418L459.325 125.166C459.097 125.721 458.867 126.271 458.637 126.824L424.279 14.5438L425.534 14.7418Z" fill="#8C8F95"/>
<path d="M426.372 14.8752L459.783 124.06C459.556 124.615 459.324 125.166 459.095 125.72L425.115 14.6749L426.372 14.8752Z" fill="#8C9095"/>
<path d="M427.21 15.0075L460.237 122.938L459.554 124.615L425.953 14.8083L427.21 15.0075Z" fill="#8D9096"/>
<path d="M428.047 15.1409L460.69 121.816C460.463 122.376 460.238 122.941 460.01 123.499L426.79 14.9414L428.047 15.1409Z" fill="#8D9196"/>
<path d="M428.884 15.274L461.144 120.695L460.464 122.377L427.628 15.0744L428.884 15.274Z" fill="#8E9197"/>
<path d="M429.721 15.4075L461.597 119.573L460.917 121.255L428.466 15.2079L429.721 15.4075Z" fill="#8E9297"/>
<path d="M430.559 15.5397L462.051 118.451L461.37 120.134L429.303 15.3405L430.559 15.5397Z" fill="#8F9298"/>
<path d="M431.398 15.673L462.504 117.329C462.279 117.892 462.05 118.45 461.824 119.012L430.141 15.4735L431.398 15.673Z" fill="#8F9398"/>
<path d="M432.235 15.8069L462.957 116.202C462.732 116.767 462.504 117.327 462.277 117.89L430.978 15.6066L432.235 15.8069Z" fill="#909399"/>
<path d="M433.074 15.9464L463.404 115.064C463.18 115.631 462.957 116.202 462.731 116.768L431.816 15.74L433.074 15.9464Z" fill="#909499"/>
<path d="M433.913 16.0854L463.853 113.924C463.628 114.493 463.406 115.065 463.181 115.633L432.655 15.8765L433.913 16.0854Z" fill="#91949A"/>
<path d="M434.753 16.2241L464.301 112.785L463.629 114.493L433.494 16.0155L434.753 16.2241Z" fill="#91959A"/>
<path d="M435.593 16.364L464.75 111.645L464.077 113.354L434.333 16.155L435.593 16.364Z" fill="#92959A"/>
<path d="M436.432 16.5027L465.198 110.506L464.525 112.215L435.173 16.2941L436.432 16.5027Z" fill="#92969B"/>
<path d="M437.272 16.6418L465.646 109.367C465.424 109.939 465.197 110.506 464.973 111.076L436.012 16.4332L437.272 16.6418Z" fill="#93969B"/>
<path d="M438.111 16.7809L466.092 108.22L465.422 109.937L436.852 16.5719L438.111 16.7809Z" fill="#93979C"/>
<path d="M438.95 16.9203L466.535 107.063C466.312 107.64 466.094 108.222 465.87 108.797L437.692 16.7117L438.95 16.9203Z" fill="#94979C"/>
<path d="M439.79 17.0595L466.978 105.906L466.313 107.641L438.531 16.8505L439.79 17.0595Z" fill="#94989D"/>
<path d="M440.631 17.2046L467.421 104.749L466.756 106.485L439.37 16.9895L440.631 17.2046Z" fill="#95989D"/>
<path d="M441.473 17.3501L467.864 103.592L467.199 105.328L440.21 17.132L441.473 17.3501Z" fill="#95999E"/>
<path d="M442.314 17.4956L468.306 102.436C468.087 103.016 467.863 103.592 467.642 104.171L441.052 17.2775L442.314 17.4956Z" fill="#96999E"/>
<path d="M443.155 17.6403L468.749 101.28C468.529 101.86 468.306 102.435 468.085 103.014L441.894 17.4226L443.155 17.6403Z" fill="#969A9F"/>
<path d="M443.996 17.7855L469.188 100.11L468.528 101.857L442.735 17.5682L443.996 17.7855Z" fill="#979A9F"/>
<path d="M444.838 17.931L469.626 98.9345C469.406 99.5207 469.19 100.113 468.97 100.698L443.576 17.7129L444.838 17.931Z" fill="#979AA0"/>
<path d="M445.68 18.0765L470.063 97.7599L469.406 99.523L444.417 17.8584L445.68 18.0765Z" fill="#989BA0"/>
<path d="M446.52 18.2216L470.5 96.5856L469.844 98.3476L445.259 18.0035L446.52 18.2216Z" fill="#989BA1"/>
<path d="M447.362 18.3671L470.938 95.4109L470.282 97.1729L446.1 18.149L447.362 18.3671Z" fill="#999CA1"/>
<path d="M448.205 18.5179L471.375 94.2351C471.158 94.8243 470.937 95.4094 470.719 95.9971L446.942 18.2946L448.205 18.5179Z" fill="#999CA2"/>
<path d="M449.048 18.6695L471.812 93.0604C471.596 93.6508 471.374 94.2348 471.156 94.8232L447.783 18.4424L449.048 18.6695Z" fill="#9A9DA2"/>
<path d="M449.892 18.8214L472.244 91.8672L471.594 93.6485L448.626 18.5939L449.892 18.8214Z" fill="#9A9DA3"/>
<path d="M450.734 18.9727L472.676 90.6744C472.459 91.2701 472.245 91.8695 472.028 92.4644L449.469 18.7451L450.734 18.9727Z" fill="#9B9EA3"/>
<path d="M451.578 19.1239L473.107 89.4813L472.46 91.2712L450.312 18.8971L451.578 19.1239Z" fill="#9B9EA4"/>
<path d="M452.421 19.2754L473.539 88.2869L472.891 90.0769L451.156 19.0482L452.421 19.2754Z" fill="#9C9FA4"/>
<path d="M453.264 19.4273L473.971 87.0937C473.756 87.692 473.539 88.2869 473.323 88.8841L452 19.1998L453.264 19.4273Z" fill="#9C9FA5"/>
<path d="M454.108 19.5785L474.402 85.8997C474.188 86.4988 473.97 87.0929 473.755 87.6909L452.843 19.351L454.108 19.5785Z" fill="#9DA0A5"/>
<path d="M454.951 19.7305L474.832 84.7005C474.618 85.3015 474.401 85.8975 474.187 86.497L453.686 19.5029L454.951 19.7305Z" fill="#9DA0A6"/>
<path d="M455.795 19.8865L475.258 83.4888C475.044 84.0927 474.833 84.7005 474.618 85.3037L454.529 19.6541L455.795 19.8865Z" fill="#9EA1A6"/>
<path d="M456.64 20.0441L475.684 82.2763C475.471 82.8814 475.26 83.4903 475.045 84.0947L455.373 19.8083L456.64 20.0441Z" fill="#9EA1A7"/>
<path d="M457.485 20.2025L476.11 81.0639L475.471 82.8814L456.219 19.9659L457.485 20.2025Z" fill="#9FA2A7"/>
<path d="M458.331 20.3601L476.535 79.8502L475.897 81.6701L457.063 20.1235L458.331 20.3601Z" fill="#9FA2A8"/>
<path d="M459.176 20.5178L476.961 78.6382L476.323 80.4573L457.908 20.2811L459.176 20.5178Z" fill="#A0A3A8"/>
<path d="M460.021 20.6753L477.387 77.4257C477.175 78.0345 476.96 78.6374 476.748 79.2451L458.753 20.4387L460.021 20.6753Z" fill="#A0A3A9"/>
<path d="M460.866 20.8333L477.809 76.2L477.175 78.0315L459.599 20.5967L460.866 20.8333Z" fill="#A1A4A9"/>
<path d="M461.711 20.9909L478.228 74.9674C478.017 75.5824 477.811 76.2022 477.599 76.8156L460.444 20.7543L461.711 20.9909Z" fill="#A1A4A9"/>
<path d="M462.557 21.1485L478.648 73.7345C478.438 74.3506 478.23 74.9686 478.019 75.5835L461.289 20.9119L462.557 21.1485Z" fill="#A2A5AA"/>
<path d="M463.403 21.3114L479.068 72.5025L478.439 74.3511L462.135 21.0703L463.403 21.3114Z" fill="#A2A5AA"/>
<path d="M464.25 21.4754L479.488 71.2707L478.858 73.1196L462.979 21.2294L464.25 21.4754Z" fill="#A3A5AB"/>
<path d="M465.097 21.6395L479.908 70.0386C479.7 70.6569 479.487 71.2696 479.278 71.8868L463.827 21.3934L465.097 21.6395Z" fill="#A3A6AB"/>
<path d="M465.944 21.8035L480.327 68.8038C480.12 69.4229 479.906 70.0363 479.698 70.6539L464.674 21.5579L465.944 21.8035Z" fill="#A4A6AC"/>
<path d="M466.791 21.9679L480.741 67.5512L480.118 69.421L465.521 21.7218L466.791 21.9679Z" fill="#A4A7AC"/>
<path d="M467.639 22.1319L481.154 66.2983C480.947 66.9234 480.743 67.5531 480.534 68.1771L466.368 21.8859L467.639 22.1319Z" fill="#A5A7AD"/>
<path d="M468.486 22.296L481.568 65.0466L480.947 66.9258L467.215 22.0499L468.486 22.296Z" fill="#A5A8AD"/>
<path d="M469.333 22.46L481.981 63.7941L481.361 65.6732L468.062 22.214L469.333 22.46Z" fill="#A6A8AE"/>
<path d="M470.179 22.624L482.395 62.5423C482.19 63.1697 481.981 63.7937 481.775 64.4203L468.909 22.378L470.179 22.624Z" fill="#A6A9AE"/>
<path d="M471.028 22.793L482.809 61.2901C482.604 61.9182 482.394 62.5403 482.188 63.1674L469.757 22.542L471.028 22.793Z" fill="#A7A9AF"/>
<path d="M471.878 22.9634L483.219 60.0251L482.602 61.916L470.604 22.7083L471.878 22.9634Z" fill="#A7AAAF"/>
<path d="M472.727 23.1339L483.626 58.7518C483.421 59.3875 483.221 60.0289 483.015 60.6627L471.453 22.8781L472.727 23.1339Z" fill="#A8AAB0"/>
<path d="M473.576 23.3043L484.033 57.4788C483.829 58.1149 483.627 58.754 483.422 59.389L472.301 23.0485L473.576 23.3043Z" fill="#A8ABB0"/>
<path d="M474.424 23.4748L484.44 56.2063L483.829 58.1161L473.15 23.2189L474.424 23.4748Z" fill="#A9ABB1"/>
<path d="M475.273 23.6453L484.848 54.9322L484.237 56.8428L474 23.3894L475.273 23.6453Z" fill="#A9ACB1"/>
<path d="M476.123 23.8154L485.255 53.6589C485.053 54.2972 484.847 54.9311 484.644 55.5687L474.849 23.5602L476.123 23.8154Z" fill="#AAACB2"/>
<path d="M476.972 23.9858L485.661 52.3828C485.46 53.0223 485.254 53.6569 485.051 54.2953L475.698 23.7299L476.972 23.9858Z" fill="#AAADB2"/>
<path d="M477.82 24.1562L486.062 51.0884C485.86 51.7328 485.662 52.3795 485.459 53.0224L476.546 23.9004L477.82 24.1562Z" fill="#ABADB3"/>
<path d="M478.671 24.332L486.463 49.7947C486.261 50.4406 486.063 51.0918 485.861 51.7369L477.396 24.0708L478.671 24.332Z" fill="#ABAEB3"/>
<path d="M479.522 24.5085L486.863 48.4994C486.663 49.1468 486.464 49.7958 486.263 50.4417L478.246 24.2435C478.671 24.3301 479.096 24.4208 479.522 24.5085Z" fill="#ACAEB4"/>
<path d="M480.373 24.6861L487.264 47.2049L486.663 49.1461L479.097 24.4208L480.373 24.6861Z" fill="#ACAFB4"/>
<path d="M481.224 24.8627L487.665 45.9093C487.467 46.5583 487.264 47.2046 487.064 47.8524L479.948 24.5977L481.224 24.8627Z" fill="#ADAFB5"/>
<path d="M482.076 25.0395L488.065 44.6148C487.867 45.2645 487.664 45.909 487.465 46.5572L480.799 24.7746L482.076 25.0395Z" fill="#ADB0B5"/>
<path d="M482.926 25.2164L488.461 43.3059L487.865 45.2626L481.649 24.951L482.926 25.2164Z" fill="#AEB0B6"/>
<path d="M483.777 25.3933L488.856 41.9892C488.657 42.6464 488.464 43.3086 488.264 43.964L482.5 25.1279L483.777 25.3933Z" fill="#AEB0B6"/>
<path d="M484.628 25.5698L489.249 40.6728C489.052 41.3304 488.857 41.9903 488.659 42.6468L483.352 25.3049L484.628 25.5698Z" fill="#AFB1B7"/>
<path d="M485.479 25.7467L489.643 39.3568L489.053 41.3304L484.203 25.4818L485.479 25.7467Z" fill="#AFB1B7"/>
<path d="M486.332 25.9292L490.037 38.0388L489.447 40.014L485.054 25.6582L486.332 25.9292Z" fill="#B0B2B7"/>
<path d="M487.184 26.1125L490.432 36.7232C490.236 37.3835 490.036 38.0388 489.84 38.6983L485.905 25.8381L487.184 26.1125Z" fill="#B0B2B8"/>
<path d="M488.037 26.2958L490.823 35.3988C490.628 36.0618 490.431 36.7206 490.234 37.382L486.758 26.0211L488.037 26.2958Z" fill="#B1B3B8"/>
<path d="M488.891 26.4787L491.21 34.0597C491.016 34.7272 490.824 35.3988 490.628 36.0647L487.611 26.2043L488.891 26.4787Z" fill="#B1B3B9"/>
<path d="M489.743 26.6621L491.597 32.7203C491.403 33.3893 491.212 34.062 491.017 34.7291L488.464 26.3877L489.743 26.6621Z" fill="#B2B4B9"/>
<path d="M490.597 26.8457L491.984 31.38L491.404 33.3892L489.317 26.5706L490.597 26.8457Z" fill="#B2B4BA"/>
<path d="M491.449 27.029L492.371 30.0413L491.791 32.0509L490.17 26.7539L491.449 27.029Z" fill="#B3B5BA"/>
<path d="M492.302 27.212L492.758 28.7015C492.566 29.3731 492.37 30.0406 492.177 30.7111L491.022 26.9373L492.302 27.212Z" fill="#B3B5BB"/>
<path d="M492.565 29.3713L491.875 27.1202L493.137 27.3912C492.948 28.0541 492.754 28.7095 492.565 29.3713Z" fill="#B4B6BB"/>
<path d="M492.952 28.0314L492.729 27.3035L493.137 27.3911L492.952 28.0314Z" fill="#B4B6BC"/>
<path fill-rule="evenodd" clip-rule="evenodd" d="M467.341 45.2876C324.814 58.8867 195.995 91.4685 78.0277 154.756C64.0755 162.242 60.0288 152.308 60.0288 152.308C55.3679 141.407 8.47716 35.5258 18.7114 33.1791C167.159 -0.874831 321.842 -1.24409 470.415 32.1174C472.619 32.6129 475.314 32.5388 473.615 38.6552C471.891 44.8771 469.796 45.0272 467.341 45.2876Z" fill="url(#paint0_radial_7_2)"/>
<path fill-rule="evenodd" clip-rule="evenodd" d="M82.9814 176.276C188.755 128.731 343.123 83.6955 448.868 67.1676C456.558 65.9672 462.625 69.1103 462.853 74.5332C462.318 76.1928 461.777 77.8437 461.236 79.4953C459.566 81.6429 456.531 83.4234 451.787 84.2802C325.644 104.069 217.407 132.303 91.1936 190.839C78.0548 196.931 73.3776 180.595 82.9814 176.276Z" fill="url(#paint1_radial_7_2)"/>
<path fill-rule="evenodd" clip-rule="evenodd" d="M180.132 337.286C241.007 308.526 300.51 287.595 359.656 273.43C371.223 270.659 354.641 290.321 353.497 290.616C282.819 307.04 259.478 315.931 188.617 351.273C181.136 355.002 174.641 339.88 180.132 337.286Z" fill="url(#paint2_radial_7_2)"/>
<path fill-rule="evenodd" clip-rule="evenodd" d="M208.811 368.584L318.305 327.441C327.999 323.821 329.044 326.186 322.456 337.099C314.263 350.674 261.468 412.179 246.913 426.338C234.646 414.405 222.391 401.705 210.253 388.244C207.767 384.578 205.663 380.798 204.099 376.889C202.614 373.173 204.471 370.205 208.811 368.584Z" fill="url(#paint3_radial_7_2)"/>
<path fill-rule="evenodd" clip-rule="evenodd" d="M104.435 223.14C101.123 214.583 109.991 207.734 116.14 205.348C138.642 196.621 443.837 81.6592 436.179 119.49C430.955 145.281 393.66 239.684 359.867 246.691C297.625 259.605 244.475 279.928 185.023 311.326C173.45 317.438 167.844 318.085 158.879 309.608C151.04 302.198 107.748 231.697 104.435 223.14Z" fill="url(#paint4_radial_7_2)"/>
<path fill-rule="evenodd" clip-rule="evenodd" d="M87.5334 36.1116C89.4984 35.7348 91.4611 35.4729 93.4159 35.3191C73.4554 43.7985 61.9676 63.9399 66.9789 84.4053C72.3787 106.464 90.4656 121.332 114.624 119.423C111.329 120.822 107.805 121.906 104.083 122.617C77.825 127.649 56.3947 112.235 50.5561 88.3908C44.7189 64.5477 61.2725 41.1422 87.5334 36.1116Z" fill="#FEFEFE"/>
<path fill-rule="evenodd" clip-rule="evenodd" d="M121.955 101.804L125.128 105.465L129.359 103.586L127.083 107.711L130.27 111.359L125.691 110.25L123.43 114.385L122.875 109.572L118.291 108.48L122.529 106.615L121.955 101.804Z" fill="#FEFEFE"/>
<path fill-rule="evenodd" clip-rule="evenodd" d="M142.93 92.9297L145.758 96.8627L150.142 95.375L147.501 99.2767L150.344 103.2L145.884 101.678L143.257 105.591L143.141 100.749L138.676 99.2457L143.065 97.7728L142.93 92.9297Z" fill="#FEFEFE"/>
<path fill-rule="evenodd" clip-rule="evenodd" d="M164.048 85.2157L166.876 89.1498L171.261 87.6607L168.618 91.5626L171.462 95.4854L167.001 93.9649L164.376 97.8786L164.259 93.0356L159.793 91.5313L164.182 90.0588L164.048 85.2157Z" fill="#FEFEFE"/>
<path fill-rule="evenodd" clip-rule="evenodd" d="M184.014 77.3629L186.842 81.2971L191.226 79.8086L188.586 83.7106L191.429 87.6338L186.968 86.1118L184.342 90.0263L184.226 85.1828L179.761 83.6793L184.15 82.2057L184.014 77.3629Z" fill="#FEFEFE"/>
<path fill-rule="evenodd" clip-rule="evenodd" d="M206.016 71.2908L208.484 75.46L212.982 74.3688L210.003 78.0194L212.486 82.1803L208.178 80.2675L205.214 83.9314L205.53 79.097L201.216 77.2012L205.719 76.1266L206.016 71.2908Z" fill="#FEFEFE"/>
<path fill-rule="evenodd" clip-rule="evenodd" d="M129.259 66.1849L132.088 70.1176L136.471 68.6296L133.83 72.5308L136.674 76.4547L132.214 74.9338L129.587 78.8464L129.471 74.0033L125.005 72.5002L129.394 71.0277L129.259 66.1849Z" fill="#FEFEFE"/>
<path fill-rule="evenodd" clip-rule="evenodd" d="M152.721 60.6264L155.551 64.5605L159.934 63.0725L157.293 66.9752L160.135 70.8973L155.675 69.3756L153.049 73.2893L152.933 68.4462L148.467 66.9435L152.856 65.4703L152.721 60.6264Z" fill="#FEFEFE"/>
<path fill-rule="evenodd" clip-rule="evenodd" d="M175.897 55.5774L178.725 59.5107L183.109 58.0223L180.468 61.9251L183.31 65.8475L178.851 64.3259L176.224 68.2392L176.108 63.3965L171.642 61.8937L176.031 60.4201L175.897 55.5774Z" fill="#FEFEFE"/>
<path fill-rule="evenodd" clip-rule="evenodd" d="M200.128 50.7766L202.594 54.9462L207.094 53.8547L204.115 57.5057L206.597 61.6662L202.29 59.753L199.326 63.4172L199.642 58.5825L195.328 56.6874L199.83 55.6114L200.128 50.7766Z" fill="#FEFEFE"/>
<path fill-rule="evenodd" clip-rule="evenodd" d="M142.597 31.3022L145.426 35.236L149.809 33.7461L147.168 37.6496L150.012 41.572L145.551 40.0511L142.926 43.9648L142.81 39.1206L138.343 37.6178L142.733 36.145L142.597 31.3022Z" fill="#FEFEFE"/>
<path fill-rule="evenodd" clip-rule="evenodd" d="M167.788 29.0549L170.617 32.989L175 31.4999L172.359 35.4022L175.202 39.3247L170.742 37.8042L168.116 41.7171L168 36.8736L163.534 35.3709L167.923 33.898L167.788 29.0549Z" fill="#FEFEFE"/>
<path fill-rule="evenodd" clip-rule="evenodd" d="M191.331 26.6598L193.798 30.8294L198.296 29.7371L195.317 33.3885L197.8 37.5497L193.492 35.6373L190.528 39.2997L190.845 34.4668L186.531 32.571L191.034 31.4949L191.331 26.6598Z" fill="#FEFEFE"/>
</g>
<defs>
<radialGradient id="paint0_radial_7_2" cx="0" cy="0" r="1" gradientUnits="userSpaceOnUse" gradientTransform="translate(108.639 71.9509) rotate(-5.40643) scale(215.162 44.6865)">
<stop stop-color="#009DD0"/>
<stop offset="1" stop-color="#006082"/>
</radialGradient>
<radialGradient id="paint1_radial_7_2" cx="0" cy="0" r="1" gradientUnits="userSpaceOnUse" gradientTransform="translate(266.509 117.006) rotate(-11.3196) scale(130.628 41.2463)">
<stop stop-color="#D6140E"/>
<stop offset="1" stop-color="#760101"/>
</radialGradient>
<radialGradient id="paint2_radial_7_2" cx="0" cy="0" r="1" gradientUnits="userSpaceOnUse" gradientTransform="translate(246.779 317.243) rotate(-18.3973) scale(79.4471 23.5681)">
<stop stop-color="#CD140E"/>
<stop offset="1" stop-color="#760101"/>
</radialGradient>
<radialGradient id="paint3_radial_7_2" cx="0" cy="0" r="1" gradientUnits="userSpaceOnUse" gradientTransform="translate(233.112 385.138) rotate(-32.1965) scale(69.6834 25.4407)">
<stop stop-color="#00A200"/>
<stop offset="1" stop-color="#003200"/>
</radialGradient>
<radialGradient id="paint4_radial_7_2" cx="0" cy="0" r="1" gradientUnits="userSpaceOnUse" gradientTransform="translate(233.422 238.39) rotate(-18.8153) scale(243.626 99.1364)">
<stop stop-color="#F1F2F6"/>
<stop offset="1" stop-color="#8B9096"/>
</radialGradient>
<clipPath id="clip0_7_2">
<rect width="494" height="433" fill="white"/>
</clipPath>
</defs>
</svg>
