<svg width="20" height="24" viewBox="0 0 20 24" fill="none" xmlns="http://www.w3.org/2000/svg">
<path d="M2.30769 10V9.23077H1.53846V10H2.30769ZM8.46154 10V9.23077H7.69231V10H8.46154ZM8.46154 16.1538H7.69231V16.9231H8.46154V16.1538ZM19.2308 5.38462H20V5.06615L19.7754 4.84L19.2308 5.38462ZM14.6154 0.769231L15.16 0.224615L14.9338 0H14.6154V0.769231ZM2.30769 10.7692H3.84615V9.23077H2.30769V10.7692ZM3.07692 16.9231V13.0769H1.53846V16.9231H3.07692ZM3.07692 13.0769V10H1.53846V13.0769H3.07692ZM3.84615 12.3077H2.30769V13.8462H3.84615V12.3077ZM4.61538 11.5385C4.61538 11.7425 4.53434 11.9381 4.39008 12.0824C4.24582 12.2267 4.05017 12.3077 3.84615 12.3077V13.8462C4.45819 13.8462 5.04516 13.603 5.47794 13.1702C5.91072 12.7375 6.15385 12.1505 6.15385 11.5385H4.61538ZM3.84615 10.7692C4.05017 10.7692 4.24582 10.8503 4.39008 10.9945C4.53434 11.1388 4.61538 11.3345 4.61538 11.5385H6.15385C6.15385 10.9264 5.91072 10.3395 5.47794 9.90668C5.04516 9.4739 4.45819 9.23077 3.84615 9.23077V10.7692ZM7.69231 10V16.1538H9.23077V10H7.69231ZM8.46154 16.9231H10V15.3846H8.46154V16.9231ZM12.3077 14.6154V11.5385H10.7692V14.6154H12.3077ZM10 9.23077H8.46154V10.7692H10V9.23077ZM12.3077 11.5385C12.3077 10.9264 12.0646 10.3395 11.6318 9.90668C11.199 9.4739 10.612 9.23077 10 9.23077V10.7692C10.204 10.7692 10.3997 10.8503 10.5439 10.9945C10.6882 11.1388 10.7692 11.3345 10.7692 11.5385H12.3077ZM10 16.9231C10.612 16.9231 11.199 16.6799 11.6318 16.2472C12.0646 15.8144 12.3077 15.2274 12.3077 14.6154H10.7692C10.7692 14.8194 10.6882 15.0151 10.5439 15.1593C10.3997 15.3036 10.204 15.3846 10 15.3846V16.9231ZM13.8462 9.23077V16.9231H15.3846V9.23077H13.8462ZM14.6154 10.7692H18.4615V9.23077H14.6154V10.7692ZM14.6154 13.8462H16.9231V12.3077H14.6154V13.8462ZM1.53846 7.69231V2.30769H0V7.69231H1.53846ZM18.4615 5.38462V7.69231H20V5.38462H18.4615ZM2.30769 1.53846H14.6154V0H2.30769V1.53846ZM14.0708 1.31385L18.6862 5.92923L19.7754 4.84L15.16 0.224615L14.0708 1.31385ZM1.53846 2.30769C1.53846 2.10368 1.61951 1.90802 1.76376 1.76376C1.90802 1.61951 2.10368 1.53846 2.30769 1.53846V0C1.69565 0 1.10868 0.243131 0.675907 0.675908C0.243131 1.10868 0 1.69565 0 2.30769H1.53846ZM0 18.4615V20.7692H1.53846V18.4615H0ZM2.30769 23.0769H17.6923V21.5385H2.30769V23.0769ZM20 20.7692V18.4615H18.4615V20.7692H20ZM17.6923 23.0769C18.3043 23.0769 18.8913 22.8338 19.3241 22.401C19.7569 21.9682 20 21.3813 20 20.7692H18.4615C18.4615 20.9732 18.3805 21.1689 18.2362 21.3132C18.092 21.4574 17.8963 21.5385 17.6923 21.5385V23.0769ZM0 20.7692C0 21.3813 0.243131 21.9682 0.675907 22.401C1.10868 22.8338 1.69565 23.0769 2.30769 23.0769V21.5385C2.10368 21.5385 1.90802 21.4574 1.76376 21.3132C1.61951 21.1689 1.53846 20.9732 1.53846 20.7692H0Z" fill="#F40F02"/>
</svg>
