<svg width="17" height="19" viewBox="0 0 17 19" fill="none" xmlns="http://www.w3.org/2000/svg">
<path d="M11.0697 18.1893C11.0697 18.3483 11.0072 18.5009 10.896 18.6133C10.7848 18.7258 10.634 18.7889 10.4767 18.7889H7.70942C7.55215 18.7889 7.40132 18.7258 7.29011 18.6133C7.1789 18.5009 7.11643 18.3483 7.11643 18.1893V12.5926C7.11643 12.4335 7.1789 12.281 7.29011 12.1686C7.40132 12.0561 7.55215 11.9929 7.70942 11.9929C7.86669 11.9929 8.01752 12.0561 8.12873 12.1686C8.23993 12.281 8.30241 12.4335 8.30241 12.5926V17.5896H10.4767C10.634 17.5896 10.7848 17.6528 10.896 17.7653C11.0072 17.8777 11.0697 18.0303 11.0697 18.1893ZM4.89073 12.1039C4.76289 12.0117 4.6041 11.9746 4.44921 12.0006C4.29432 12.0266 4.15597 12.1137 4.0645 12.2428L2.57016 14.3585L1.07582 12.2428C1.0304 12.1787 0.972939 12.1244 0.906734 12.0828C0.840528 12.0412 0.766869 12.0132 0.689963 12.0004C0.613056 11.9876 0.534408 11.9902 0.458509 12.0081C0.38261 12.0261 0.310946 12.0589 0.24761 12.1049C0.184273 12.1508 0.130504 12.2089 0.0893728 12.2759C0.0482412 12.3428 0.0205524 12.4173 0.00788764 12.4951C-0.00477715 12.5728 -0.00216986 12.6524 0.0155603 12.7291C0.0332904 12.8059 0.0657961 12.8783 0.111222 12.9424L1.84177 15.3909L0.111222 17.8395C0.0657961 17.9035 0.0332904 17.976 0.0155603 18.0528C-0.00216986 18.1295 -0.00477715 18.209 0.00788764 18.2868C0.0205524 18.3646 0.0482412 18.4391 0.0893728 18.506C0.130504 18.573 0.184273 18.6311 0.24761 18.677C0.310946 18.7229 0.38261 18.7558 0.458509 18.7737C0.534408 18.7917 0.613056 18.7943 0.689963 18.7815C0.766869 18.7687 0.840528 18.7407 0.906734 18.6991C0.972939 18.6575 1.0304 18.6031 1.07582 18.5391L2.57016 16.4213L4.0645 18.5361C4.11915 18.614 4.19143 18.6777 4.27533 18.7216C4.35922 18.7656 4.4523 18.7887 4.5468 18.7889C4.67027 18.7894 4.7907 18.7502 4.89073 18.677C4.95414 18.6313 5.00802 18.5734 5.04929 18.5066C5.09056 18.4398 5.11842 18.3654 5.13127 18.2877C5.14412 18.2101 5.14171 18.1306 5.12418 18.0538C5.10665 17.9771 5.07434 17.9046 5.0291 17.8405L3.29855 15.3909L5.0291 12.9414C5.07449 12.8772 5.10692 12.8047 5.12454 12.7278C5.14216 12.651 5.14461 12.5714 5.13175 12.4936C5.1189 12.4158 5.091 12.3413 5.04964 12.2745C5.00828 12.2076 4.95428 12.1496 4.89073 12.1039ZM14.7265 14.7133C13.6542 14.4005 13.4011 14.2446 13.4417 13.9228C13.4473 13.8217 13.476 13.7234 13.5253 13.6353C13.5747 13.5473 13.6435 13.4719 13.7263 13.4151C14.2798 13.0363 15.4707 13.2322 15.8453 13.3312C15.9967 13.37 16.1571 13.3469 16.2918 13.2668C16.4264 13.1867 16.5244 13.0561 16.5644 12.9033C16.6043 12.7506 16.5831 12.5881 16.5052 12.4512C16.4274 12.3142 16.2993 12.2138 16.1487 12.1718C15.951 12.1179 14.1622 11.6721 13.0641 12.4197C12.8413 12.5725 12.6544 12.7729 12.5164 13.0067C12.3784 13.2405 12.2928 13.502 12.2656 13.7729C12.0877 15.1911 13.4772 15.5968 14.3974 15.8657C15.5952 16.2155 15.8571 16.3983 15.8008 16.8411C15.7957 16.9472 15.7663 17.0507 15.7148 17.1433C15.6634 17.2359 15.5913 17.3152 15.5043 17.3748C14.9498 17.7476 13.7767 17.5387 13.41 17.4367C13.2632 17.4068 13.1105 17.4341 12.9828 17.5134C12.855 17.5926 12.7617 17.7177 12.7215 17.8637C12.6813 18.0097 12.6973 18.1656 12.7662 18.3002C12.835 18.4347 12.9517 18.538 13.0928 18.5891C13.5663 18.7167 14.0537 18.7838 14.5436 18.7889C15.0862 18.7889 15.6842 18.694 16.1605 18.3752C16.3896 18.2206 16.5821 18.0167 16.7241 17.7781C16.866 17.5395 16.9541 17.2721 16.9818 16.995C17.1805 15.4299 15.7059 14.9992 14.7265 14.7133ZM0.000530221 8.59494V1.39918C0.000530221 1.02809 0.146307 0.672206 0.405791 0.409809C0.665275 0.147413 1.01721 0 1.38418 0H10.872C11.0293 0.000139959 11.18 0.0634087 11.2911 0.175896L16.8257 5.7726C16.9369 5.88495 16.9995 6.03737 16.9996 6.19635V8.59494C16.9996 8.75398 16.9371 8.9065 16.8259 9.01895C16.7147 9.13141 16.5639 9.19459 16.4066 9.19459C16.2494 9.19459 16.0985 9.13141 15.9873 9.01895C15.8761 8.9065 15.8136 8.75398 15.8136 8.59494V6.796H10.872C10.7148 6.796 10.5639 6.73282 10.4527 6.62037C10.3415 6.50791 10.279 6.35539 10.279 6.19635V1.19929H1.38418C1.33175 1.19929 1.28148 1.22035 1.24441 1.25784C1.20734 1.29532 1.18651 1.34616 1.18651 1.39918V8.59494C1.18651 8.75398 1.12404 8.9065 1.01283 9.01895C0.901622 9.13141 0.750793 9.19459 0.593522 9.19459C0.436251 9.19459 0.285421 9.13141 0.174213 9.01895C0.0630058 8.9065 0.000530221 8.75398 0.000530221 8.59494ZM11.465 5.5967H14.9736L11.465 2.04679V5.5967Z" fill="white"/>
</svg>
